<svg xmlns="http://www.w3.org/2000/svg" width="16" height="16" viewBox="0 0 16 16" fill="none">
<path d="M1.3335 3.16663C1.3335 2.89048 1.55735 2.66663 1.8335 2.66663H14.1668C14.443 2.66663 14.6668 2.89048 14.6668 3.16663V3.49996C14.6668 3.7761 14.443 3.99996 14.1668 3.99996H1.8335C1.55735 3.99996 1.3335 3.7761 1.3335 3.49996V3.16663Z" fill="white" fill-opacity="0.8"/>
<path d="M1.3335 7.83329C1.3335 7.55715 1.55735 7.33329 1.8335 7.33329H14.1668C14.443 7.33329 14.6668 7.55715 14.6668 7.83329V8.04697C14.6668 8.32311 14.443 8.54697 14.1668 8.54697H1.8335C1.55735 8.54697 1.3335 8.32311 1.3335 8.04697V7.83329Z" fill="white" fill-opacity="0.8"/>
<path d="M1.8335 12C1.55735 12 1.3335 12.2238 1.3335 12.5V12.8333C1.3335 13.1094 1.55735 13.3333 1.8335 13.3333H14.1668C14.443 13.3333 14.6668 13.1094 14.6668 12.8333V12.5C14.6668 12.2238 14.443 12 14.1668 12H1.8335Z" fill="white" fill-opacity="0.8"/>
</svg>