<svg width="1600" height="790" viewBox="0 0 1600 790" fill="none" xmlns="http://www.w3.org/2000/svg">
<path fill-rule="evenodd" clip-rule="evenodd" d="M149.822 22.9543C150.202 21.5336 149.818 19.8279 148.669 17.8371L144.21 10.1145C143.061 8.12369 141.776 6.93792 140.355 6.55721C138.934 6.1765 137.229 6.56049 135.239 7.70914L125.72 13.2049C123.73 14.3554 122.545 15.6405 122.163 17.06C121.782 18.4796 122.167 20.1853 123.317 22.1772L127.775 29.8999C128.926 31.89 130.211 33.0758 131.63 33.4572C133.05 33.8385 134.756 33.4542 136.747 32.3042L146.266 26.8084C148.256 25.6598 149.441 24.3751 149.822 22.9543ZM136.771 12.5917C137.909 11.9364 138.806 12.1773 139.462 13.3144L143.527 20.3466C144.185 21.4842 143.945 22.3816 142.807 23.0387L135.216 27.4217C134.077 28.0777 133.179 27.8371 132.523 26.7L128.461 19.6658C127.805 18.5269 128.046 17.6292 129.183 16.9727L136.771 12.5917ZM72.3641 69.0972L77.4859 66.1401L75.7695 49.7732L89.0856 59.4432L94.2057 56.4871L75.3403 42.6706L75.0427 42.8424L75.0427 42.8423L69.8331 45.85L72.3641 69.0972ZM56.6667 65.8046L58.0259 65.0198L60.5903 51.1862L55.0348 54.3937L53.0601 65.3903L48.9825 67.7445L44.7145 60.3522L40.0643 63.0371L50.7634 81.5684L55.4136 78.8836L51.1447 71.4897L55.2214 69.136L65.7343 72.925L71.2898 69.7175L58.0274 65.0215L56.6678 65.8065L56.6667 65.8046ZM86.577 36.183L91.3666 33.4177L102.066 51.9491L97.276 54.7144L86.577 36.183ZM118.385 23.0941L116.101 19.1374L95.4584 31.0551L97.7428 35.0119L105.671 30.4346L114.086 45.0093L118.875 42.244L110.461 27.6693L118.385 23.0941Z" fill="white" fill-opacity="0.05"/>
<path fill-rule="evenodd" clip-rule="evenodd" d="M1.2179 82.4456C0.545273 81.2806 0.944439 79.7909 2.10946 79.1183L8.18061 75.6131C9.34563 74.9405 10.8353 75.3396 11.508 76.5047L13.9678 80.7652C14.6404 81.9302 16.1301 82.3294 17.2951 81.6567L21.3097 79.3389C21.8692 79.0159 22.2775 78.4839 22.4447 77.8598L23.279 74.7456C23.4462 74.1217 23.3587 73.4568 23.0357 72.8974L21.7159 70.6115C21.0433 69.4465 21.4425 67.9568 22.6075 67.2842L25.2212 65.7752C26.3862 65.1025 27.8759 65.5017 28.5486 66.6667L30.0578 69.2807C30.7304 70.4458 30.3312 71.9355 29.1662 72.6081L27.0127 73.8514C26.4533 74.1744 26.045 74.7065 25.8778 75.3305L24.9529 78.7828C24.7857 79.4068 24.8732 80.0716 25.1962 80.6311L28.1465 85.7411C28.4695 86.3006 29.0015 86.7088 29.6255 86.876L33.013 87.7838C33.637 87.951 34.3019 87.8635 34.8614 87.5405L37.0552 86.2739C38.2202 85.6013 39.7099 86.0004 40.3825 87.1654L41.8917 89.7795C42.5644 90.9445 42.1652 92.4342 41.0002 93.1068L38.3865 94.6158C37.2215 95.2885 35.7318 94.8893 35.0591 93.7243L33.7627 91.4788C33.4397 90.9193 32.9077 90.5111 32.2837 90.3439L28.9759 89.4575C28.3518 89.2903 27.687 89.3778 27.1275 89.7008L23.2365 91.9473C22.0715 92.6199 21.6723 94.1096 22.3449 95.2746L24.8523 99.6176C25.525 100.783 25.1258 102.272 23.9608 102.945L17.8896 106.45C16.7246 107.123 15.2349 106.724 14.5623 105.559L11.0568 99.487C10.3842 98.3219 10.7834 96.8322 11.9484 96.1596L16.2088 93.6999C17.3738 93.0272 17.773 91.5375 17.1003 90.3725L15.6386 87.8406C14.9659 86.6756 13.4762 86.2764 12.3112 86.9491L8.05073 89.4088C6.8857 90.0815 5.39599 89.6823 4.72336 88.5173L1.2179 82.4456Z" fill="white" fill-opacity="0.05"/>
<path fill-rule="evenodd" clip-rule="evenodd" d="M424.166 22.9543C424.547 21.5336 424.163 19.8279 423.013 17.8371L418.555 10.1145C417.405 8.12369 416.12 6.93792 414.7 6.55721C413.279 6.1765 411.574 6.56049 409.584 7.70914L400.065 13.2049C398.075 14.3554 396.889 15.6405 396.508 17.06C396.127 18.4796 396.511 20.1853 397.661 22.1772L402.12 29.8999C403.271 31.89 404.556 33.0758 405.975 33.4572C407.395 33.8385 409.1 33.4542 411.092 32.3042L420.611 26.8084C422.601 25.6598 423.786 24.3751 424.166 22.9543ZM411.116 12.5917C412.254 11.9364 413.151 12.1773 413.807 13.3144L417.872 20.3466C418.53 21.4842 418.29 22.3816 417.152 23.0387L409.56 27.4217C408.422 28.0777 407.524 27.8371 406.867 26.7L402.806 19.6658C402.15 18.5269 402.391 17.6292 403.528 16.9727L411.116 12.5917ZM346.709 69.0972L351.831 66.1401L350.114 49.7732L363.43 59.4432L368.55 56.4871L349.685 42.6706L349.387 42.8424L349.387 42.8423L344.178 45.85L346.709 69.0972ZM331.011 65.8046L332.371 65.0198L334.935 51.1862L329.379 54.3937L327.405 65.3903L323.327 67.7445L319.059 60.3522L314.409 63.0371L325.108 81.5684L329.758 78.8836L325.489 71.4897L329.566 69.136L340.079 72.925L345.635 69.7175L332.372 65.0215L331.012 65.8065L331.011 65.8046ZM360.922 36.183L365.711 33.4177L376.41 51.9491L371.621 54.7144L360.922 36.183ZM392.73 23.0941L390.445 19.1374L369.803 31.0551L372.088 35.0119L380.016 30.4346L388.43 45.0093L393.22 42.244L384.805 27.6693L392.73 23.0941Z" fill="white" fill-opacity="0.05"/>
<path fill-rule="evenodd" clip-rule="evenodd" d="M275.563 82.4456C274.89 81.2806 275.289 79.7909 276.454 79.1183L282.525 75.6131C283.69 74.9405 285.18 75.3396 285.853 76.5047L288.313 80.7652C288.985 81.9302 290.475 82.3294 291.64 81.6567L295.654 79.3389C296.214 79.0159 296.622 78.4839 296.789 77.8598L297.624 74.7456C297.791 74.1217 297.703 73.4568 297.38 72.8974L296.061 70.6115C295.388 69.4465 295.787 67.9568 296.952 67.2842L299.566 65.7752C300.731 65.1025 302.221 65.5017 302.893 66.6667L304.402 69.2807C305.075 70.4458 304.676 71.9355 303.511 72.6081L301.357 73.8514C300.798 74.1744 300.39 74.7065 300.223 75.3305L299.298 78.7828C299.13 79.4068 299.218 80.0716 299.541 80.6311L302.491 85.7411C302.814 86.3006 303.346 86.7088 303.97 86.876L307.358 87.7838C307.982 87.951 308.647 87.8635 309.206 87.5405L311.4 86.2739C312.565 85.6013 314.055 86.0004 314.727 87.1655L316.236 89.7795C316.909 90.9445 316.51 92.4342 315.345 93.1068L312.731 94.6158C311.566 95.2885 310.076 94.8893 309.404 93.7243L308.107 91.4788C307.784 90.9193 307.252 90.5111 306.628 90.3439L303.321 89.4575C302.697 89.2903 302.032 89.3778 301.472 89.7008L297.581 91.9473C296.416 92.6199 296.017 94.1096 296.69 95.2746L299.197 99.6176C299.87 100.783 299.471 102.272 298.306 102.945L292.234 106.45C291.069 107.123 289.58 106.724 288.907 105.559L285.402 99.487C284.729 98.3219 285.128 96.8322 286.293 96.1596L290.553 93.6999C291.719 93.0272 292.118 91.5375 291.445 90.3725L289.983 87.8406C289.311 86.6756 287.821 86.2764 286.656 86.9491L282.395 89.4088C281.23 90.0815 279.741 89.6823 279.068 88.5173L275.563 82.4456Z" fill="white" fill-opacity="0.05"/>
<path fill-rule="evenodd" clip-rule="evenodd" d="M698.51 22.9543C698.891 21.5336 698.506 19.8279 697.357 17.8371L692.898 10.1145C691.749 8.12369 690.464 6.93792 689.043 6.55721C687.623 6.1765 685.917 6.56049 683.928 7.70914L674.409 13.2049C672.419 14.3554 671.233 15.6405 670.852 17.06C670.471 18.4796 670.855 20.1853 672.005 22.1772L676.464 29.8999C677.614 31.89 678.899 33.0758 680.319 33.4572C681.738 33.8385 683.444 33.4542 685.436 32.3042L694.955 26.8084C696.944 25.6598 698.13 24.3751 698.51 22.9543ZM685.46 12.5917C686.597 11.9364 687.494 12.1773 688.151 13.3144L692.216 20.3466C692.874 21.4842 692.634 22.3816 691.496 23.0387L683.904 27.4217C682.765 28.0777 681.868 27.8371 681.211 26.7L677.15 19.6658C676.494 18.5269 676.734 17.6292 677.871 16.9727L685.46 12.5917ZM621.053 69.0972L626.174 66.1401L624.458 49.7732L637.774 59.4432L642.894 56.4871L624.029 42.6706L623.731 42.8424L623.731 42.8423L618.522 45.85L621.053 69.0972ZM605.355 65.8046L606.714 65.0198L609.279 51.1862L603.723 54.3937L601.749 65.3903L597.671 67.7445L593.403 60.3522L588.753 63.0371L599.452 81.5684L604.102 78.8836L599.833 71.4897L603.91 69.136L614.423 72.925L619.978 69.7175L606.716 65.0215L605.356 65.8065L605.355 65.8046ZM635.265 36.183L640.055 33.4177L650.754 51.9491L645.965 54.7144L635.265 36.183ZM667.073 23.0941L664.789 19.1374L644.147 31.0551L646.431 35.0119L654.359 30.4346L662.774 45.0093L667.564 42.244L659.149 27.6693L667.073 23.0941Z" fill="white" fill-opacity="0.05"/>
<path fill-rule="evenodd" clip-rule="evenodd" d="M549.906 82.4456C549.234 81.2806 549.633 79.7909 550.798 79.1183L556.869 75.6131C558.034 74.9405 559.524 75.3396 560.196 76.5047L562.656 80.7652C563.329 81.9302 564.819 82.3294 565.984 81.6567L569.998 79.3389C570.558 79.0159 570.966 78.4839 571.133 77.8598L571.968 74.7456C572.135 74.1217 572.047 73.4568 571.724 72.8974L570.404 70.6115C569.732 69.4465 570.131 67.9568 571.296 67.2842L573.91 65.7752C575.075 65.1025 576.564 65.5017 577.237 66.6667L578.746 69.2807C579.419 70.4458 579.02 71.9355 577.855 72.6081L575.701 73.8514C575.142 74.1744 574.733 74.7065 574.566 75.3305L573.641 78.7828C573.474 79.4068 573.562 80.0716 573.885 80.6311L576.835 85.7411C577.158 86.3006 577.69 86.7088 578.314 86.876L581.701 87.7838C582.325 87.951 582.99 87.8635 583.55 87.5405L585.744 86.2739C586.909 85.6013 588.398 86.0004 589.071 87.1655L590.58 89.7795C591.253 90.9445 590.854 92.4342 589.689 93.1068L587.075 94.6158C585.91 95.2885 584.42 94.8893 583.748 93.7243L582.451 91.4788C582.128 90.9193 581.596 90.5111 580.972 90.3439L577.664 89.4575C577.04 89.2903 576.375 89.3778 575.816 89.7008L571.925 91.9473C570.76 92.6199 570.361 94.1096 571.033 95.2746L573.541 99.6176C574.213 100.783 573.814 102.272 572.649 102.945L566.578 106.45C565.413 107.123 563.923 106.724 563.251 105.559L559.745 99.487C559.073 98.3219 559.472 96.8322 560.637 96.1596L564.897 93.6999C566.062 93.0272 566.461 91.5375 565.789 90.3725L564.327 87.8406C563.654 86.6756 562.165 86.2764 561 86.9491L556.739 89.4088C555.574 90.0815 554.084 89.6823 553.412 88.5173L549.906 82.4456Z" fill="white" fill-opacity="0.05"/>
<path fill-rule="evenodd" clip-rule="evenodd" d="M972.855 22.9543C973.236 21.5336 972.851 19.8279 971.702 17.8371L967.243 10.1145C966.094 8.12369 964.809 6.93792 963.388 6.55721C961.967 6.1765 960.262 6.56049 958.273 7.70914L948.754 13.2049C946.764 14.3554 945.578 15.6405 945.197 17.06C944.815 18.4796 945.2 20.1853 946.35 22.1772L950.808 29.8999C951.959 31.89 953.244 33.0758 954.664 33.4572C956.083 33.8385 957.789 33.4542 959.781 32.3042L969.3 26.8084C971.289 25.6598 972.474 24.3751 972.855 22.9543ZM959.804 12.5917C960.942 11.9364 961.839 12.1773 962.496 13.3144L966.56 20.3466C967.219 21.4842 966.979 22.3816 965.84 23.0387L958.249 27.4217C957.11 28.0777 956.212 27.8371 955.556 26.7L951.495 19.6658C950.839 18.5269 951.079 17.6292 952.216 16.9727L959.804 12.5917ZM895.397 69.0972L900.519 66.1401L898.803 49.7732L912.119 59.4432L917.239 56.4871L898.373 42.6706L898.076 42.8424L898.076 42.8423L892.866 45.85L895.397 69.0972ZM879.7 65.8046L881.059 65.0198L883.624 51.1862L878.068 54.3937L876.093 65.3903L872.016 67.7445L867.748 60.3522L863.097 63.0371L873.797 81.5684L878.447 78.8836L874.178 71.4897L878.255 69.136L888.767 72.925L894.323 69.7175L881.061 65.0215L879.701 65.8065L879.7 65.8046ZM909.61 36.183L914.4 33.4177L925.099 51.9491L920.309 54.7144L909.61 36.183ZM941.418 23.0941L939.134 19.1374L918.492 31.0551L920.776 35.0119L928.704 30.4346L937.119 45.0093L941.908 42.244L933.494 27.6693L941.418 23.0941Z" fill="white" fill-opacity="0.05"/>
<path fill-rule="evenodd" clip-rule="evenodd" d="M824.251 82.4456C823.578 81.2806 823.978 79.7909 825.143 79.1183L831.214 75.6131C832.379 74.9405 833.869 75.3396 834.541 76.5047L837.001 80.7652C837.674 81.9302 839.163 82.3294 840.328 81.6567L844.343 79.3389C844.902 79.0159 845.311 78.4839 845.478 77.8598L846.312 74.7456C846.479 74.1217 846.392 73.4568 846.069 72.8974L844.749 70.6115C844.077 69.4465 844.476 67.9568 845.641 67.2842L848.254 65.7752C849.419 65.1025 850.909 65.5017 851.582 66.6667L853.091 69.2807C853.764 70.4458 853.364 71.9355 852.199 72.6081L850.046 73.8514C849.486 74.1744 849.078 74.7065 848.911 75.3305L847.986 78.7828C847.819 79.4068 847.906 80.0716 848.229 80.6311L851.18 85.7411C851.503 86.3006 852.035 86.7088 852.659 86.876L856.046 87.7838C856.67 87.951 857.335 87.8635 857.895 87.5405L860.088 86.2739C861.253 85.6013 862.743 86.0004 863.416 87.1654L864.925 89.7795C865.598 90.9445 865.198 92.4342 864.033 93.1068L861.42 94.6158C860.255 95.2885 858.765 94.8893 858.092 93.7243L856.796 91.4788C856.473 90.9193 855.941 90.5111 855.317 90.3439L852.009 89.4575C851.385 89.2903 850.72 89.3778 850.161 89.7008L846.27 91.9473C845.105 92.6199 844.705 94.1096 845.378 95.2746L847.886 99.6176C848.558 100.783 848.159 102.272 846.994 102.945L840.923 106.45C839.758 107.123 838.268 106.724 837.595 105.559L834.09 99.487C833.417 98.3219 833.817 96.8322 834.982 96.1596L839.242 93.6999C840.407 93.0272 840.806 91.5375 840.134 90.3725L838.672 87.8406C837.999 86.6756 836.509 86.2764 835.344 86.9491L831.084 89.4088C829.919 90.0815 828.429 89.6823 827.757 88.5173L824.251 82.4456Z" fill="white" fill-opacity="0.05"/>
<path fill-rule="evenodd" clip-rule="evenodd" d="M1247.2 22.9543C1247.58 21.5336 1247.19 19.8279 1246.05 17.8371L1241.59 10.1145C1240.44 8.12369 1239.15 6.93792 1237.73 6.55721C1236.31 6.1765 1234.61 6.56049 1232.62 7.70914L1223.1 13.2049C1221.11 14.3554 1219.92 15.6405 1219.54 17.06C1219.16 18.4796 1219.54 20.1853 1220.69 22.1772L1225.15 29.8999C1226.3 31.89 1227.59 33.0758 1229.01 33.4572C1230.43 33.8385 1232.13 33.4542 1234.12 32.3042L1243.64 26.8084C1245.63 25.6598 1246.82 24.3751 1247.2 22.9543ZM1234.15 12.5917C1235.29 11.9364 1236.18 12.1773 1236.84 13.3144L1240.9 20.3466C1241.56 21.4842 1241.32 22.3816 1240.18 23.0387L1232.59 27.4217C1231.45 28.0777 1230.56 27.8371 1229.9 26.7L1225.84 19.6658C1225.18 18.5269 1225.42 17.6292 1226.56 16.9727L1234.15 12.5917ZM1169.74 69.0972L1174.86 66.1401L1173.15 49.7732L1186.46 59.4432L1191.58 56.4871L1172.72 42.6706L1172.42 42.8424L1172.42 42.8423L1167.21 45.85L1169.74 69.0972ZM1154.04 65.8046L1155.4 65.0198L1157.97 51.1862L1152.41 54.3937L1150.44 65.3903L1146.36 67.7445L1142.09 60.3522L1137.44 63.0371L1148.14 81.5684L1152.79 78.8836L1148.52 71.4897L1152.6 69.136L1163.11 72.925L1168.67 69.7175L1155.4 65.0215L1154.04 65.8065L1154.04 65.8046ZM1183.95 36.183L1188.74 33.4177L1199.44 51.9491L1194.65 54.7144L1183.95 36.183ZM1215.76 23.0941L1213.48 19.1374L1192.84 31.0551L1195.12 35.0119L1203.05 30.4346L1211.46 45.0093L1216.25 42.244L1207.84 27.6693L1215.76 23.0941Z" fill="white" fill-opacity="0.05"/>
<path fill-rule="evenodd" clip-rule="evenodd" d="M1098.59 82.4456C1097.92 81.2806 1098.32 79.7909 1099.49 79.1183L1105.56 75.6131C1106.72 74.9405 1108.21 75.3396 1108.88 76.5047L1111.34 80.7652C1112.02 81.9302 1113.51 82.3294 1114.67 81.6567L1118.69 79.3389C1119.25 79.0159 1119.65 78.4839 1119.82 77.8598L1120.66 74.7456C1120.82 74.1217 1120.74 73.4568 1120.41 72.8974L1119.09 70.6115C1118.42 69.4465 1118.82 67.9568 1119.98 67.2842L1122.6 65.7752C1123.76 65.1025 1125.25 65.5017 1125.93 66.6667L1127.43 69.2807C1128.11 70.4458 1127.71 71.9355 1126.54 72.6081L1124.39 73.8514C1123.83 74.1744 1123.42 74.7065 1123.25 75.3305L1122.33 78.7828C1122.16 79.4068 1122.25 80.0716 1122.57 80.6311L1125.52 85.7411C1125.85 86.3006 1126.38 86.7088 1127 86.876L1130.39 87.7838C1131.01 87.951 1131.68 87.8635 1132.24 87.5405L1134.43 86.2739C1135.6 85.6013 1137.09 86.0004 1137.76 87.1654L1139.27 89.7795C1139.94 90.9445 1139.54 92.4342 1138.38 93.1068L1135.76 94.6158C1134.6 95.2885 1133.11 94.8893 1132.44 93.7243L1131.14 91.4788C1130.82 90.9193 1130.28 90.5111 1129.66 90.3439L1126.35 89.4575C1125.73 89.2903 1125.06 89.3778 1124.5 89.7008L1120.61 91.9473C1119.45 92.6199 1119.05 94.1096 1119.72 95.2746L1122.23 99.6176C1122.9 100.783 1122.5 102.272 1121.34 102.945L1115.27 106.45C1114.1 107.123 1112.61 106.724 1111.94 105.559L1108.43 99.487C1107.76 98.3219 1108.16 96.8322 1109.33 96.1596L1113.59 93.6999C1114.75 93.0272 1115.15 91.5375 1114.48 90.3725L1113.02 87.8406C1112.34 86.6756 1110.85 86.2764 1109.69 86.9491L1105.43 89.4088C1104.26 90.0815 1102.77 89.6823 1102.1 88.5173L1098.59 82.4456Z" fill="white" fill-opacity="0.05"/>
<path fill-rule="evenodd" clip-rule="evenodd" d="M1521.54 22.9543C1521.92 21.5336 1521.54 19.8279 1520.39 17.8371L1515.93 10.1145C1514.78 8.12369 1513.5 6.93792 1512.08 6.55721C1510.66 6.1765 1508.95 6.56049 1506.96 7.70914L1497.44 13.2049C1495.45 14.3554 1494.27 15.6405 1493.89 17.06C1493.5 18.4796 1493.89 20.1853 1495.04 22.1772L1499.5 29.8999C1500.65 31.89 1501.93 33.0758 1503.35 33.4572C1504.77 33.8385 1506.48 33.4542 1508.47 32.3042L1517.99 26.8084C1519.98 25.6598 1521.16 24.3751 1521.54 22.9543ZM1508.49 12.5917C1509.63 11.9364 1510.53 12.1773 1511.18 13.3144L1515.25 20.3466C1515.91 21.4842 1515.67 22.3816 1514.53 23.0387L1506.94 27.4217C1505.8 28.0777 1504.9 27.8371 1504.24 26.7L1500.18 19.6658C1499.53 18.5269 1499.77 17.6292 1500.9 16.9727L1508.49 12.5917ZM1444.09 69.0972L1449.21 66.1401L1447.49 49.7732L1460.81 59.4432L1465.93 56.4871L1447.06 42.6706L1446.76 42.8424L1446.76 42.8423L1441.55 45.85L1444.09 69.0972ZM1428.39 65.8046L1429.75 65.0198L1432.31 51.1862L1426.76 54.3937L1424.78 65.3903L1420.7 67.7445L1416.44 60.3522L1411.79 63.0371L1422.49 81.5684L1427.14 78.8836L1422.87 71.4897L1426.94 69.136L1437.46 72.925L1443.01 69.7175L1429.75 65.0215L1428.39 65.8065L1428.39 65.8046ZM1458.3 36.183L1463.09 33.4177L1473.79 51.9491L1469 54.7144L1458.3 36.183ZM1490.11 23.0941L1487.82 19.1374L1467.18 31.0551L1469.46 35.0119L1477.39 30.4346L1485.81 45.0093L1490.6 42.244L1482.18 27.6693L1490.11 23.0941Z" fill="white" fill-opacity="0.05"/>
<path fill-rule="evenodd" clip-rule="evenodd" d="M1372.94 82.4456C1372.27 81.2806 1372.67 79.7909 1373.83 79.1183L1379.9 75.6131C1381.07 74.9405 1382.56 75.3396 1383.23 76.5047L1385.69 80.7652C1386.36 81.9302 1387.85 82.3294 1389.02 81.6567L1393.03 79.3389C1393.59 79.0159 1394 78.4839 1394.17 77.8598L1395 74.7456C1395.17 74.1217 1395.08 73.4568 1394.76 72.8974L1393.44 70.6115C1392.76 69.4465 1393.16 67.9568 1394.33 67.2842L1396.94 65.7752C1398.11 65.1025 1399.6 65.5017 1400.27 66.6667L1401.78 69.2807C1402.45 70.4458 1402.05 71.9355 1400.89 72.6081L1398.73 73.8514C1398.17 74.1744 1397.77 74.7065 1397.6 75.3305L1396.67 78.7828C1396.51 79.4068 1396.59 80.0716 1396.92 80.6311L1399.87 85.7411C1400.19 86.3006 1400.72 86.7088 1401.35 86.876L1404.73 87.7838C1405.36 87.951 1406.02 87.8635 1406.58 87.5405L1408.78 86.2739C1409.94 85.6013 1411.43 86.0004 1412.1 87.1655L1413.61 89.7795C1414.29 90.9445 1413.89 92.4342 1412.72 93.1068L1410.11 94.6158C1408.94 95.2885 1407.45 94.8893 1406.78 93.7243L1405.48 91.4788C1405.16 90.9193 1404.63 90.5111 1404.01 90.3439L1400.7 89.4575C1400.07 89.2903 1399.41 89.3778 1398.85 89.7008L1394.96 91.9473C1393.79 92.6199 1393.39 94.1096 1394.07 95.2746L1396.57 99.6176C1397.25 100.783 1396.85 102.272 1395.68 102.945L1389.61 106.45C1388.45 107.123 1386.96 106.724 1386.28 105.559L1382.78 99.487C1382.11 98.3219 1382.51 96.8322 1383.67 96.1596L1387.93 93.6999C1389.1 93.0272 1389.49 91.5375 1388.82 90.3725L1387.36 87.8406C1386.69 86.6756 1385.2 86.2764 1384.03 86.9491L1379.77 89.4088C1378.61 90.0815 1377.12 89.6823 1376.45 88.5173L1372.94 82.4456Z" fill="white" fill-opacity="0.05"/>
<path fill-rule="evenodd" clip-rule="evenodd" d="M149.822 250.286C150.202 248.866 149.818 247.16 148.669 245.169L144.21 237.446C143.061 235.456 141.776 234.27 140.355 233.889C138.934 233.509 137.229 233.893 135.239 235.041L125.72 240.537C123.73 241.687 122.545 242.972 122.163 244.392C121.782 245.812 122.167 247.517 123.317 249.509L127.775 257.232C128.926 259.222 130.211 260.408 131.63 260.789C133.05 261.171 134.756 260.786 136.747 259.636L146.266 254.14C148.256 252.992 149.441 251.707 149.822 250.286ZM136.771 239.924C137.909 239.268 138.806 239.509 139.462 240.646L143.527 247.679C144.185 248.816 143.945 249.714 142.807 250.371L135.216 254.754C134.077 255.41 133.179 255.169 132.523 254.032L128.461 246.998C127.805 245.859 128.046 244.961 129.183 244.305L136.771 239.924ZM72.3641 296.429L77.4859 293.472L75.7695 277.105L89.0856 286.775L94.2057 283.819L75.3403 270.003L75.0427 270.174L75.0427 270.174L69.8331 273.182L72.3641 296.429ZM56.6667 293.137L58.0259 292.352L60.5903 278.518L55.0348 281.726L53.0601 292.722L48.9825 295.077L44.7145 287.684L40.0643 290.369L50.7634 308.9L55.4136 306.216L51.1447 298.822L55.2214 296.468L65.7343 300.257L71.2898 297.05L58.0274 292.354L56.6678 293.138L56.6667 293.137ZM86.577 263.515L91.3666 260.75L102.066 279.281L97.276 282.046L86.577 263.515ZM118.385 250.426L116.101 246.469L95.4584 258.387L97.7428 262.344L105.671 257.767L114.086 272.341L118.875 269.576L110.461 255.001L118.385 250.426Z" fill="white" fill-opacity="0.05"/>
<path fill-rule="evenodd" clip-rule="evenodd" d="M1.2179 309.778C0.545273 308.613 0.944439 307.123 2.10946 306.45L8.18061 302.945C9.34563 302.273 10.8353 302.672 11.508 303.837L13.9678 308.097C14.6404 309.262 16.1301 309.661 17.2951 308.989L21.3097 306.671C21.8692 306.348 22.2775 305.816 22.4447 305.192L23.279 302.078C23.4462 301.454 23.3587 300.789 23.0357 300.229L21.7159 297.944C21.0433 296.779 21.4425 295.289 22.6075 294.616L25.2212 293.107C26.3862 292.435 27.8759 292.834 28.5486 293.999L30.0578 296.613C30.7304 297.778 30.3312 299.268 29.1662 299.94L27.0127 301.183C26.4533 301.506 26.045 302.038 25.8778 302.663L24.9529 306.115C24.7857 306.739 24.8732 307.404 25.1962 307.963L28.1465 313.073C28.4695 313.633 29.0015 314.041 29.6255 314.208L33.013 315.116C33.637 315.283 34.3019 315.196 34.8614 314.873L37.0552 313.606C38.2202 312.933 39.7099 313.332 40.3825 314.497L41.8917 317.111C42.5644 318.277 42.1652 319.766 41.0002 320.439L38.3865 321.948C37.2215 322.62 35.7318 322.221 35.0591 321.056L33.7627 318.811C33.4397 318.251 32.9077 317.843 32.2837 317.676L28.9759 316.79C28.3518 316.622 27.687 316.71 27.1275 317.033L23.2365 319.279C22.0715 319.952 21.6723 321.442 22.3449 322.607L24.8523 326.95C25.525 328.115 25.1258 329.604 23.9608 330.277L17.8896 333.782C16.7246 334.455 15.2349 334.056 14.5623 332.891L11.0568 326.819C10.3842 325.654 10.7834 324.164 11.9484 323.492L16.2088 321.032C17.3738 320.359 17.773 318.87 17.1003 317.705L15.6386 315.173C14.9659 314.008 13.4762 313.608 12.3112 314.281L8.05073 316.741C6.8857 317.414 5.39599 317.014 4.72336 315.849L1.2179 309.778Z" fill="white" fill-opacity="0.05"/>
<path fill-rule="evenodd" clip-rule="evenodd" d="M424.166 250.286C424.547 248.866 424.163 247.16 423.013 245.169L418.555 237.446C417.405 235.456 416.12 234.27 414.7 233.889C413.279 233.509 411.574 233.893 409.584 235.041L400.065 240.537C398.075 241.687 396.889 242.972 396.508 244.392C396.127 245.812 396.511 247.517 397.661 249.509L402.12 257.232C403.271 259.222 404.556 260.408 405.975 260.789C407.395 261.171 409.1 260.786 411.092 259.636L420.611 254.14C422.601 252.992 423.786 251.707 424.166 250.286ZM411.116 239.924C412.254 239.268 413.151 239.509 413.807 240.646L417.872 247.679C418.53 248.816 418.29 249.714 417.152 250.371L409.56 254.754C408.422 255.41 407.524 255.169 406.867 254.032L402.806 246.998C402.15 245.859 402.391 244.961 403.528 244.305L411.116 239.924ZM346.709 296.429L351.831 293.472L350.114 277.105L363.43 286.775L368.55 283.819L349.685 270.003L349.387 270.174L349.387 270.174L344.178 273.182L346.709 296.429ZM331.011 293.137L332.371 292.352L334.935 278.518L329.379 281.726L327.405 292.722L323.327 295.077L319.059 287.684L314.409 290.369L325.108 308.9L329.758 306.216L325.489 298.822L329.566 296.468L340.079 300.257L345.635 297.05L332.372 292.354L331.012 293.138L331.011 293.137ZM360.922 263.515L365.711 260.75L376.41 279.281L371.621 282.046L360.922 263.515ZM392.73 250.426L390.445 246.469L369.803 258.387L372.088 262.344L380.016 257.767L388.43 272.341L393.22 269.576L384.805 255.001L392.73 250.426Z" fill="white" fill-opacity="0.05"/>
<path fill-rule="evenodd" clip-rule="evenodd" d="M275.563 309.778C274.89 308.613 275.289 307.123 276.454 306.45L282.525 302.945C283.69 302.273 285.18 302.672 285.853 303.837L288.313 308.097C288.985 309.262 290.475 309.661 291.64 308.989L295.654 306.671C296.214 306.348 296.622 305.816 296.789 305.192L297.624 302.078C297.791 301.454 297.703 300.789 297.38 300.229L296.061 297.944C295.388 296.779 295.787 295.289 296.952 294.616L299.566 293.107C300.731 292.435 302.221 292.834 302.893 293.999L304.402 296.613C305.075 297.778 304.676 299.268 303.511 299.94L301.357 301.183C300.798 301.506 300.39 302.038 300.223 302.663L299.298 306.115C299.13 306.739 299.218 307.404 299.541 307.963L302.491 313.073C302.814 313.633 303.346 314.041 303.97 314.208L307.358 315.116C307.982 315.283 308.647 315.196 309.206 314.873L311.4 313.606C312.565 312.933 314.055 313.332 314.727 314.497L316.236 317.111C316.909 318.277 316.51 319.766 315.345 320.439L312.731 321.948C311.566 322.62 310.076 322.221 309.404 321.056L308.107 318.811C307.784 318.251 307.252 317.843 306.628 317.676L303.321 316.79C302.697 316.622 302.032 316.71 301.472 317.033L297.581 319.279C296.416 319.952 296.017 321.442 296.69 322.607L299.197 326.95C299.87 328.115 299.471 329.604 298.306 330.277L292.234 333.782C291.069 334.455 289.58 334.056 288.907 332.891L285.402 326.819C284.729 325.654 285.128 324.164 286.293 323.492L290.553 321.032C291.719 320.359 292.118 318.87 291.445 317.705L289.983 315.173C289.311 314.008 287.821 313.608 286.656 314.281L282.395 316.741C281.23 317.414 279.741 317.014 279.068 315.849L275.563 309.778Z" fill="white" fill-opacity="0.05"/>
<path fill-rule="evenodd" clip-rule="evenodd" d="M698.51 250.286C698.891 248.866 698.506 247.16 697.357 245.169L692.898 237.446C691.749 235.456 690.464 234.27 689.043 233.889C687.623 233.509 685.917 233.893 683.928 235.041L674.409 240.537C672.419 241.687 671.233 242.972 670.852 244.392C670.471 245.812 670.855 247.517 672.005 249.509L676.464 257.232C677.614 259.222 678.899 260.408 680.319 260.789C681.738 261.171 683.444 260.786 685.436 259.636L694.955 254.14C696.944 252.992 698.13 251.707 698.51 250.286ZM685.46 239.924C686.597 239.268 687.494 239.509 688.151 240.646L692.216 247.679C692.874 248.816 692.634 249.714 691.496 250.371L683.904 254.754C682.765 255.41 681.868 255.169 681.211 254.032L677.15 246.998C676.494 245.859 676.734 244.961 677.871 244.305L685.46 239.924ZM621.053 296.429L626.174 293.472L624.458 277.105L637.774 286.775L642.894 283.819L624.029 270.003L623.731 270.174L623.731 270.174L618.522 273.182L621.053 296.429ZM605.355 293.137L606.714 292.352L609.279 278.518L603.723 281.726L601.749 292.722L597.671 295.077L593.403 287.684L588.753 290.369L599.452 308.9L604.102 306.216L599.833 298.822L603.91 296.468L614.423 300.257L619.978 297.05L606.716 292.354L605.356 293.138L605.355 293.137ZM635.265 263.515L640.055 260.75L650.754 279.281L645.965 282.046L635.265 263.515ZM667.073 250.426L664.789 246.469L644.147 258.387L646.431 262.344L654.359 257.767L662.774 272.341L667.564 269.576L659.149 255.001L667.073 250.426Z" fill="white" fill-opacity="0.05"/>
<path fill-rule="evenodd" clip-rule="evenodd" d="M549.906 309.778C549.234 308.613 549.633 307.123 550.798 306.45L556.869 302.945C558.034 302.273 559.524 302.672 560.196 303.837L562.656 308.097C563.329 309.262 564.819 309.661 565.984 308.989L569.998 306.671C570.558 306.348 570.966 305.816 571.133 305.192L571.968 302.078C572.135 301.454 572.047 300.789 571.724 300.229L570.404 297.944C569.732 296.779 570.131 295.289 571.296 294.616L573.91 293.107C575.075 292.435 576.564 292.834 577.237 293.999L578.746 296.613C579.419 297.778 579.02 299.268 577.855 299.94L575.701 301.183C575.142 301.506 574.733 302.038 574.566 302.663L573.641 306.115C573.474 306.739 573.562 307.404 573.885 307.963L576.835 313.073C577.158 313.633 577.69 314.041 578.314 314.208L581.701 315.116C582.325 315.283 582.99 315.196 583.55 314.873L585.744 313.606C586.909 312.933 588.398 313.332 589.071 314.497L590.58 317.111C591.253 318.277 590.854 319.766 589.689 320.439L587.075 321.948C585.91 322.62 584.42 322.221 583.748 321.056L582.451 318.811C582.128 318.251 581.596 317.843 580.972 317.676L577.664 316.79C577.04 316.622 576.375 316.71 575.816 317.033L571.925 319.279C570.76 319.952 570.361 321.442 571.033 322.607L573.541 326.95C574.213 328.115 573.814 329.604 572.649 330.277L566.578 333.782C565.413 334.455 563.923 334.056 563.251 332.891L559.745 326.819C559.073 325.654 559.472 324.164 560.637 323.492L564.897 321.032C566.062 320.359 566.461 318.87 565.789 317.705L564.327 315.173C563.654 314.008 562.165 313.608 561 314.281L556.739 316.741C555.574 317.414 554.084 317.014 553.412 315.849L549.906 309.778Z" fill="white" fill-opacity="0.05"/>
<path fill-rule="evenodd" clip-rule="evenodd" d="M972.855 250.286C973.236 248.866 972.851 247.16 971.702 245.169L967.243 237.446C966.094 235.456 964.809 234.27 963.388 233.889C961.967 233.509 960.262 233.893 958.273 235.041L948.754 240.537C946.764 241.687 945.578 242.972 945.197 244.392C944.815 245.812 945.2 247.517 946.35 249.509L950.808 257.232C951.959 259.222 953.244 260.408 954.664 260.789C956.083 261.171 957.789 260.786 959.781 259.636L969.3 254.14C971.289 252.992 972.474 251.707 972.855 250.286ZM959.804 239.924C960.942 239.268 961.839 239.509 962.496 240.646L966.56 247.679C967.219 248.816 966.979 249.714 965.84 250.371L958.249 254.754C957.11 255.41 956.212 255.169 955.556 254.032L951.495 246.998C950.839 245.859 951.079 244.961 952.216 244.305L959.804 239.924ZM895.397 296.429L900.519 293.472L898.803 277.105L912.119 286.775L917.239 283.819L898.373 270.003L898.076 270.174L898.076 270.174L892.866 273.182L895.397 296.429ZM879.7 293.137L881.059 292.352L883.624 278.518L878.068 281.726L876.093 292.722L872.016 295.077L867.748 287.684L863.097 290.369L873.797 308.9L878.447 306.216L874.178 298.822L878.255 296.468L888.767 300.257L894.323 297.05L881.061 292.354L879.701 293.138L879.7 293.137ZM909.61 263.515L914.4 260.75L925.099 279.281L920.309 282.046L909.61 263.515ZM941.418 250.426L939.134 246.469L918.492 258.387L920.776 262.344L928.704 257.767L937.119 272.341L941.908 269.576L933.494 255.001L941.418 250.426Z" fill="white" fill-opacity="0.05"/>
<path fill-rule="evenodd" clip-rule="evenodd" d="M824.251 309.778C823.578 308.613 823.978 307.123 825.143 306.45L831.214 302.945C832.379 302.273 833.869 302.672 834.541 303.837L837.001 308.097C837.674 309.262 839.163 309.661 840.328 308.989L844.343 306.671C844.902 306.348 845.311 305.816 845.478 305.192L846.312 302.078C846.479 301.454 846.392 300.789 846.069 300.229L844.749 297.944C844.077 296.779 844.476 295.289 845.641 294.616L848.254 293.107C849.419 292.435 850.909 292.834 851.582 293.999L853.091 296.613C853.764 297.778 853.364 299.268 852.199 299.94L850.046 301.183C849.486 301.506 849.078 302.038 848.911 302.663L847.986 306.115C847.819 306.739 847.906 307.404 848.229 307.963L851.18 313.073C851.503 313.633 852.035 314.041 852.659 314.208L856.046 315.116C856.67 315.283 857.335 315.196 857.895 314.873L860.088 313.606C861.253 312.933 862.743 313.332 863.416 314.497L864.925 317.111C865.598 318.277 865.198 319.766 864.033 320.439L861.42 321.948C860.255 322.62 858.765 322.221 858.092 321.056L856.796 318.811C856.473 318.251 855.941 317.843 855.317 317.676L852.009 316.79C851.385 316.622 850.72 316.71 850.161 317.033L846.27 319.279C845.105 319.952 844.705 321.442 845.378 322.607L847.886 326.95C848.558 328.115 848.159 329.604 846.994 330.277L840.923 333.782C839.758 334.455 838.268 334.056 837.595 332.891L834.09 326.819C833.417 325.654 833.817 324.164 834.982 323.492L839.242 321.032C840.407 320.359 840.806 318.87 840.134 317.705L838.672 315.173C837.999 314.008 836.509 313.608 835.344 314.281L831.084 316.741C829.919 317.414 828.429 317.014 827.757 315.849L824.251 309.778Z" fill="white" fill-opacity="0.05"/>
<path fill-rule="evenodd" clip-rule="evenodd" d="M1247.2 250.286C1247.58 248.866 1247.19 247.16 1246.05 245.169L1241.59 237.446C1240.44 235.456 1239.15 234.27 1237.73 233.889C1236.31 233.509 1234.61 233.893 1232.62 235.041L1223.1 240.537C1221.11 241.687 1219.92 242.972 1219.54 244.392C1219.16 245.812 1219.54 247.517 1220.69 249.509L1225.15 257.232C1226.3 259.222 1227.59 260.408 1229.01 260.789C1230.43 261.171 1232.13 260.786 1234.12 259.636L1243.64 254.14C1245.63 252.992 1246.82 251.707 1247.2 250.286ZM1234.15 239.924C1235.29 239.268 1236.18 239.509 1236.84 240.646L1240.9 247.679C1241.56 248.816 1241.32 249.714 1240.18 250.371L1232.59 254.754C1231.45 255.41 1230.56 255.169 1229.9 254.032L1225.84 246.998C1225.18 245.859 1225.42 244.961 1226.56 244.305L1234.15 239.924ZM1169.74 296.429L1174.86 293.472L1173.15 277.105L1186.46 286.775L1191.58 283.819L1172.72 270.003L1172.42 270.174L1172.42 270.174L1167.21 273.182L1169.74 296.429ZM1154.04 293.137L1155.4 292.352L1157.97 278.518L1152.41 281.726L1150.44 292.722L1146.36 295.077L1142.09 287.684L1137.44 290.369L1148.14 308.9L1152.79 306.216L1148.52 298.822L1152.6 296.468L1163.11 300.257L1168.67 297.05L1155.4 292.354L1154.04 293.138L1154.04 293.137ZM1183.95 263.515L1188.74 260.75L1199.44 279.281L1194.65 282.046L1183.95 263.515ZM1215.76 250.426L1213.48 246.469L1192.84 258.387L1195.12 262.344L1203.05 257.767L1211.46 272.341L1216.25 269.576L1207.84 255.001L1215.76 250.426Z" fill="white" fill-opacity="0.05"/>
<path fill-rule="evenodd" clip-rule="evenodd" d="M1098.59 309.778C1097.92 308.613 1098.32 307.123 1099.49 306.45L1105.56 302.945C1106.72 302.273 1108.21 302.672 1108.88 303.837L1111.34 308.097C1112.02 309.262 1113.51 309.661 1114.67 308.989L1118.69 306.671C1119.25 306.348 1119.65 305.816 1119.82 305.192L1120.66 302.078C1120.82 301.454 1120.74 300.789 1120.41 300.229L1119.09 297.944C1118.42 296.779 1118.82 295.289 1119.98 294.616L1122.6 293.107C1123.76 292.435 1125.25 292.834 1125.93 293.999L1127.43 296.613C1128.11 297.778 1127.71 299.268 1126.54 299.94L1124.39 301.183C1123.83 301.506 1123.42 302.038 1123.25 302.663L1122.33 306.115C1122.16 306.739 1122.25 307.404 1122.57 307.963L1125.52 313.073C1125.85 313.633 1126.38 314.041 1127 314.208L1130.39 315.116C1131.01 315.283 1131.68 315.196 1132.24 314.873L1134.43 313.606C1135.6 312.933 1137.09 313.332 1137.76 314.497L1139.27 317.111C1139.94 318.277 1139.54 319.766 1138.38 320.439L1135.76 321.948C1134.6 322.62 1133.11 322.221 1132.44 321.056L1131.14 318.811C1130.82 318.251 1130.28 317.843 1129.66 317.676L1126.35 316.79C1125.73 316.622 1125.06 316.71 1124.5 317.033L1120.61 319.279C1119.45 319.952 1119.05 321.442 1119.72 322.607L1122.23 326.95C1122.9 328.115 1122.5 329.604 1121.34 330.277L1115.27 333.782C1114.1 334.455 1112.61 334.056 1111.94 332.891L1108.43 326.819C1107.76 325.654 1108.16 324.164 1109.33 323.492L1113.59 321.032C1114.75 320.359 1115.15 318.87 1114.48 317.705L1113.02 315.173C1112.34 314.008 1110.85 313.608 1109.69 314.281L1105.43 316.741C1104.26 317.414 1102.77 317.014 1102.1 315.849L1098.59 309.778Z" fill="white" fill-opacity="0.05"/>
<path fill-rule="evenodd" clip-rule="evenodd" d="M1521.54 250.286C1521.92 248.866 1521.54 247.16 1520.39 245.169L1515.93 237.446C1514.78 235.456 1513.5 234.27 1512.08 233.889C1510.66 233.509 1508.95 233.893 1506.96 235.041L1497.44 240.537C1495.45 241.687 1494.27 242.972 1493.89 244.392C1493.5 245.812 1493.89 247.517 1495.04 249.509L1499.5 257.232C1500.65 259.222 1501.93 260.408 1503.35 260.789C1504.77 261.171 1506.48 260.786 1508.47 259.636L1517.99 254.14C1519.98 252.992 1521.16 251.707 1521.54 250.286ZM1508.49 239.924C1509.63 239.268 1510.53 239.509 1511.18 240.646L1515.25 247.679C1515.91 248.816 1515.67 249.714 1514.53 250.371L1506.94 254.754C1505.8 255.41 1504.9 255.169 1504.24 254.032L1500.18 246.998C1499.53 245.859 1499.77 244.961 1500.9 244.305L1508.49 239.924ZM1444.09 296.429L1449.21 293.472L1447.49 277.105L1460.81 286.775L1465.93 283.819L1447.06 270.003L1446.76 270.174L1446.76 270.174L1441.55 273.182L1444.09 296.429ZM1428.39 293.137L1429.75 292.352L1432.31 278.518L1426.76 281.726L1424.78 292.722L1420.7 295.077L1416.44 287.684L1411.79 290.369L1422.49 308.9L1427.14 306.216L1422.87 298.822L1426.94 296.468L1437.46 300.257L1443.01 297.05L1429.75 292.354L1428.39 293.138L1428.39 293.137ZM1458.3 263.515L1463.09 260.75L1473.79 279.281L1469 282.046L1458.3 263.515ZM1490.11 250.426L1487.82 246.469L1467.18 258.387L1469.46 262.344L1477.39 257.767L1485.81 272.341L1490.6 269.576L1482.18 255.001L1490.11 250.426Z" fill="white" fill-opacity="0.05"/>
<path fill-rule="evenodd" clip-rule="evenodd" d="M1372.94 309.778C1372.27 308.613 1372.67 307.123 1373.83 306.45L1379.9 302.945C1381.07 302.273 1382.56 302.672 1383.23 303.837L1385.69 308.097C1386.36 309.262 1387.85 309.661 1389.02 308.989L1393.03 306.671C1393.59 306.348 1394 305.816 1394.17 305.192L1395 302.078C1395.17 301.454 1395.08 300.789 1394.76 300.229L1393.44 297.944C1392.76 296.779 1393.16 295.289 1394.33 294.616L1396.94 293.107C1398.11 292.435 1399.6 292.834 1400.27 293.999L1401.78 296.613C1402.45 297.778 1402.05 299.268 1400.89 299.94L1398.73 301.183C1398.17 301.506 1397.77 302.038 1397.6 302.663L1396.67 306.115C1396.51 306.739 1396.59 307.404 1396.92 307.963L1399.87 313.073C1400.19 313.633 1400.72 314.041 1401.35 314.208L1404.73 315.116C1405.36 315.283 1406.02 315.196 1406.58 314.873L1408.78 313.606C1409.94 312.933 1411.43 313.332 1412.1 314.497L1413.61 317.111C1414.29 318.277 1413.89 319.766 1412.72 320.439L1410.11 321.948C1408.94 322.62 1407.45 322.221 1406.78 321.056L1405.48 318.811C1405.16 318.251 1404.63 317.843 1404.01 317.676L1400.7 316.79C1400.07 316.622 1399.41 316.71 1398.85 317.033L1394.96 319.279C1393.79 319.952 1393.39 321.442 1394.07 322.607L1396.57 326.95C1397.25 328.115 1396.85 329.604 1395.68 330.277L1389.61 333.782C1388.45 334.455 1386.96 334.056 1386.28 332.891L1382.78 326.819C1382.11 325.654 1382.51 324.164 1383.67 323.492L1387.93 321.032C1389.1 320.359 1389.49 318.87 1388.82 317.705L1387.36 315.173C1386.69 314.008 1385.2 313.608 1384.03 314.281L1379.77 316.741C1378.61 317.414 1377.12 317.014 1376.45 315.849L1372.94 309.778Z" fill="white" fill-opacity="0.05"/>
<path fill-rule="evenodd" clip-rule="evenodd" d="M149.822 477.618C150.202 476.198 149.818 474.492 148.669 472.501L144.21 464.779C143.061 462.788 141.776 461.602 140.355 461.221C138.934 460.841 137.229 461.225 135.239 462.373L125.72 467.869C123.73 469.019 122.545 470.305 122.163 471.724C121.782 473.144 122.167 474.849 123.317 476.841L127.775 484.564C128.926 486.554 130.211 487.74 131.63 488.121C133.05 488.503 134.756 488.118 136.747 486.968L146.266 481.472C148.256 480.324 149.441 479.039 149.822 477.618ZM136.771 467.256C137.909 466.6 138.806 466.841 139.462 467.978L143.527 475.011C144.185 476.148 143.945 477.046 142.807 477.703L135.216 482.086C134.077 482.742 133.179 482.501 132.523 481.364L128.461 474.33C127.805 473.191 128.046 472.293 129.183 471.637L136.771 467.256ZM72.3641 523.761L77.4859 520.804L75.7695 504.437L89.0856 514.107L94.2057 511.151L75.3403 497.335L75.0427 497.507L75.0427 497.506L69.8331 500.514L72.3641 523.761ZM56.6667 520.469L58.0259 519.684L60.5903 505.85L55.0348 509.058L53.0601 520.054L48.9825 522.409L44.7145 515.016L40.0643 517.701L50.7634 536.232L55.4136 533.548L51.1447 526.154L55.2214 523.8L65.7343 527.589L71.2898 524.382L58.0274 519.686L56.6678 520.471L56.6667 520.469ZM86.577 490.847L91.3666 488.082L102.066 506.613L97.276 509.378L86.577 490.847ZM118.385 477.758L116.101 473.801L95.4584 485.719L97.7428 489.676L105.671 485.099L114.086 499.673L118.875 496.908L110.461 482.333L118.385 477.758Z" fill="white" fill-opacity="0.05"/>
<path fill-rule="evenodd" clip-rule="evenodd" d="M1.2179 537.11C0.545273 535.945 0.944439 534.455 2.10946 533.782L8.18061 530.277C9.34563 529.605 10.8353 530.004 11.508 531.169L13.9678 535.429C14.6404 536.594 16.1301 536.993 17.2951 536.321L21.3097 534.003C21.8692 533.68 22.2775 533.148 22.4447 532.524L23.279 529.41C23.4462 528.786 23.3587 528.121 23.0357 527.561L21.7159 525.276C21.0433 524.111 21.4425 522.621 22.6075 521.948L25.2212 520.439C26.3862 519.767 27.8759 520.166 28.5486 521.331L30.0578 523.945C30.7304 525.11 30.3312 526.6 29.1662 527.272L27.0127 528.515C26.4533 528.838 26.045 529.371 25.8778 529.995L24.9529 533.447C24.7857 534.071 24.8732 534.736 25.1962 535.295L28.1465 540.405C28.4695 540.965 29.0015 541.373 29.6255 541.54L33.013 542.448C33.637 542.615 34.3019 542.528 34.8614 542.205L37.0552 540.938C38.2202 540.265 39.7099 540.664 40.3825 541.83L41.8917 544.444C42.5644 545.609 42.1652 547.098 41.0002 547.771L38.3865 549.28C37.2215 549.953 35.7318 549.553 35.0591 548.388L33.7627 546.143C33.4397 545.583 32.9077 545.175 32.2837 545.008L28.9759 544.122C28.3518 543.954 27.687 544.042 27.1275 544.365L23.2365 546.611C22.0715 547.284 21.6723 548.774 22.3449 549.939L24.8523 554.282C25.525 555.447 25.1258 556.936 23.9608 557.609L17.8896 561.114C16.7246 561.787 15.2349 561.388 14.5623 560.223L11.0568 554.151C10.3842 552.986 10.7834 551.496 11.9484 550.824L16.2088 548.364C17.3738 547.691 17.773 546.202 17.1003 545.037L15.6386 542.505C14.9659 541.34 13.4762 540.941 12.3112 541.613L8.05073 544.073C6.8857 544.746 5.39599 544.346 4.72336 543.181L1.2179 537.11Z" fill="white" fill-opacity="0.05"/>
<path fill-rule="evenodd" clip-rule="evenodd" d="M424.166 477.618C424.547 476.198 424.163 474.492 423.013 472.501L418.555 464.779C417.405 462.788 416.12 461.602 414.7 461.221C413.279 460.841 411.574 461.225 409.584 462.373L400.065 467.869C398.075 469.019 396.889 470.305 396.508 471.724C396.127 473.144 396.511 474.849 397.661 476.841L402.12 484.564C403.271 486.554 404.556 487.74 405.975 488.121C407.395 488.503 409.1 488.118 411.092 486.968L420.611 481.472C422.601 480.324 423.786 479.039 424.166 477.618ZM411.116 467.256C412.254 466.6 413.151 466.841 413.807 467.978L417.872 475.011C418.53 476.148 418.29 477.046 417.152 477.703L409.56 482.086C408.422 482.742 407.524 482.501 406.867 481.364L402.806 474.33C402.15 473.191 402.391 472.293 403.528 471.637L411.116 467.256ZM346.709 523.761L351.831 520.804L350.114 504.437L363.43 514.107L368.55 511.151L349.685 497.335L349.387 497.507L349.387 497.506L344.178 500.514L346.709 523.761ZM331.011 520.469L332.371 519.684L334.935 505.85L329.379 509.058L327.405 520.054L323.327 522.409L319.059 515.016L314.409 517.701L325.108 536.232L329.758 533.548L325.489 526.154L329.566 523.8L340.079 527.589L345.635 524.382L332.372 519.686L331.012 520.471L331.011 520.469ZM360.922 490.847L365.711 488.082L376.41 506.613L371.621 509.378L360.922 490.847ZM392.73 477.758L390.445 473.801L369.803 485.719L372.088 489.676L380.016 485.099L388.43 499.673L393.22 496.908L384.805 482.333L392.73 477.758Z" fill="white" fill-opacity="0.05"/>
<path fill-rule="evenodd" clip-rule="evenodd" d="M275.563 537.11C274.89 535.945 275.289 534.455 276.454 533.782L282.525 530.277C283.69 529.605 285.18 530.004 285.853 531.169L288.313 535.429C288.985 536.594 290.475 536.993 291.64 536.321L295.654 534.003C296.214 533.68 296.622 533.148 296.789 532.524L297.624 529.41C297.791 528.786 297.703 528.121 297.38 527.561L296.061 525.276C295.388 524.111 295.787 522.621 296.952 521.948L299.566 520.439C300.731 519.767 302.221 520.166 302.893 521.331L304.402 523.945C305.075 525.11 304.676 526.6 303.511 527.272L301.357 528.515C300.798 528.838 300.39 529.371 300.223 529.995L299.298 533.447C299.13 534.071 299.218 534.736 299.541 535.295L302.491 540.405C302.814 540.965 303.346 541.373 303.97 541.54L307.358 542.448C307.982 542.615 308.647 542.528 309.206 542.205L311.4 540.938C312.565 540.265 314.055 540.664 314.727 541.83L316.236 544.444C316.909 545.609 316.51 547.098 315.345 547.771L312.731 549.28C311.566 549.953 310.076 549.553 309.404 548.388L308.107 546.143C307.784 545.583 307.252 545.175 306.628 545.008L303.321 544.122C302.697 543.954 302.032 544.042 301.472 544.365L297.581 546.611C296.416 547.284 296.017 548.774 296.69 549.939L299.197 554.282C299.87 555.447 299.471 556.936 298.306 557.609L292.234 561.114C291.069 561.787 289.58 561.388 288.907 560.223L285.402 554.151C284.729 552.986 285.128 551.496 286.293 550.824L290.553 548.364C291.719 547.691 292.118 546.202 291.445 545.037L289.983 542.505C289.311 541.34 287.821 540.941 286.656 541.613L282.395 544.073C281.23 544.746 279.741 544.346 279.068 543.181L275.563 537.11Z" fill="white" fill-opacity="0.05"/>
<path fill-rule="evenodd" clip-rule="evenodd" d="M698.51 477.618C698.891 476.198 698.506 474.492 697.357 472.501L692.898 464.779C691.749 462.788 690.464 461.602 689.043 461.221C687.623 460.841 685.917 461.225 683.928 462.373L674.409 467.869C672.419 469.019 671.233 470.305 670.852 471.724C670.471 473.144 670.855 474.849 672.005 476.841L676.464 484.564C677.614 486.554 678.899 487.74 680.319 488.121C681.738 488.503 683.444 488.118 685.436 486.968L694.955 481.472C696.944 480.324 698.13 479.039 698.51 477.618ZM685.46 467.256C686.597 466.6 687.494 466.841 688.151 467.978L692.216 475.011C692.874 476.148 692.634 477.046 691.496 477.703L683.904 482.086C682.765 482.742 681.868 482.501 681.211 481.364L677.15 474.33C676.494 473.191 676.734 472.293 677.871 471.637L685.46 467.256ZM621.053 523.761L626.174 520.804L624.458 504.437L637.774 514.107L642.894 511.151L624.029 497.335L623.731 497.507L623.731 497.506L618.522 500.514L621.053 523.761ZM605.355 520.469L606.714 519.684L609.279 505.85L603.723 509.058L601.749 520.054L597.671 522.409L593.403 515.016L588.753 517.701L599.452 536.232L604.102 533.548L599.833 526.154L603.91 523.8L614.423 527.589L619.978 524.382L606.716 519.686L605.356 520.471L605.355 520.469ZM635.265 490.847L640.055 488.082L650.754 506.613L645.965 509.378L635.265 490.847ZM667.073 477.758L664.789 473.801L644.147 485.719L646.431 489.676L654.359 485.099L662.774 499.673L667.564 496.908L659.149 482.333L667.073 477.758Z" fill="white" fill-opacity="0.05"/>
<path fill-rule="evenodd" clip-rule="evenodd" d="M549.906 537.11C549.234 535.945 549.633 534.455 550.798 533.782L556.869 530.277C558.034 529.605 559.524 530.004 560.196 531.169L562.656 535.429C563.329 536.594 564.819 536.993 565.984 536.321L569.998 534.003C570.558 533.68 570.966 533.148 571.133 532.524L571.968 529.41C572.135 528.786 572.047 528.121 571.724 527.561L570.404 525.276C569.732 524.111 570.131 522.621 571.296 521.948L573.91 520.439C575.075 519.767 576.564 520.166 577.237 521.331L578.746 523.945C579.419 525.11 579.02 526.6 577.855 527.272L575.701 528.515C575.142 528.838 574.733 529.371 574.566 529.995L573.641 533.447C573.474 534.071 573.562 534.736 573.885 535.295L576.835 540.405C577.158 540.965 577.69 541.373 578.314 541.54L581.701 542.448C582.325 542.615 582.99 542.528 583.55 542.205L585.744 540.938C586.909 540.265 588.398 540.664 589.071 541.83L590.58 544.444C591.253 545.609 590.854 547.098 589.689 547.771L587.075 549.28C585.91 549.953 584.42 549.553 583.748 548.388L582.451 546.143C582.128 545.583 581.596 545.175 580.972 545.008L577.664 544.122C577.04 543.954 576.375 544.042 575.816 544.365L571.925 546.611C570.76 547.284 570.361 548.774 571.033 549.939L573.541 554.282C574.213 555.447 573.814 556.936 572.649 557.609L566.578 561.114C565.413 561.787 563.923 561.388 563.251 560.223L559.745 554.151C559.073 552.986 559.472 551.496 560.637 550.824L564.897 548.364C566.062 547.691 566.461 546.202 565.789 545.037L564.327 542.505C563.654 541.34 562.165 540.941 561 541.613L556.739 544.073C555.574 544.746 554.084 544.346 553.412 543.181L549.906 537.11Z" fill="white" fill-opacity="0.05"/>
<path fill-rule="evenodd" clip-rule="evenodd" d="M972.855 477.618C973.236 476.198 972.851 474.492 971.702 472.501L967.243 464.779C966.094 462.788 964.809 461.602 963.388 461.221C961.967 460.841 960.262 461.225 958.273 462.373L948.754 467.869C946.764 469.019 945.578 470.305 945.197 471.724C944.815 473.144 945.2 474.849 946.35 476.841L950.808 484.564C951.959 486.554 953.244 487.74 954.664 488.121C956.083 488.503 957.789 488.118 959.781 486.968L969.3 481.472C971.289 480.324 972.474 479.039 972.855 477.618ZM959.804 467.256C960.942 466.6 961.839 466.841 962.496 467.978L966.56 475.011C967.219 476.148 966.979 477.046 965.84 477.703L958.249 482.086C957.11 482.742 956.212 482.501 955.556 481.364L951.495 474.33C950.839 473.191 951.079 472.293 952.216 471.637L959.804 467.256ZM895.397 523.761L900.519 520.804L898.803 504.437L912.119 514.107L917.239 511.151L898.373 497.335L898.076 497.507L898.076 497.506L892.866 500.514L895.397 523.761ZM879.7 520.469L881.059 519.684L883.624 505.85L878.068 509.058L876.093 520.054L872.016 522.409L867.748 515.016L863.097 517.701L873.797 536.232L878.447 533.548L874.178 526.154L878.255 523.8L888.767 527.589L894.323 524.382L881.061 519.686L879.701 520.471L879.7 520.469ZM909.61 490.847L914.4 488.082L925.099 506.613L920.309 509.378L909.61 490.847ZM941.418 477.758L939.134 473.801L918.492 485.719L920.776 489.676L928.704 485.099L937.119 499.673L941.908 496.908L933.494 482.333L941.418 477.758Z" fill="white" fill-opacity="0.05"/>
<path fill-rule="evenodd" clip-rule="evenodd" d="M824.251 537.11C823.578 535.945 823.978 534.455 825.143 533.782L831.214 530.277C832.379 529.605 833.869 530.004 834.541 531.169L837.001 535.429C837.674 536.594 839.163 536.993 840.328 536.321L844.343 534.003C844.902 533.68 845.311 533.148 845.478 532.524L846.312 529.41C846.479 528.786 846.392 528.121 846.069 527.561L844.749 525.276C844.077 524.111 844.476 522.621 845.641 521.948L848.254 520.439C849.419 519.767 850.909 520.166 851.582 521.331L853.091 523.945C853.764 525.11 853.364 526.6 852.199 527.272L850.046 528.515C849.486 528.838 849.078 529.371 848.911 529.995L847.986 533.447C847.819 534.071 847.906 534.736 848.229 535.295L851.18 540.405C851.503 540.965 852.035 541.373 852.659 541.54L856.046 542.448C856.67 542.615 857.335 542.528 857.895 542.205L860.088 540.938C861.253 540.265 862.743 540.664 863.416 541.83L864.925 544.444C865.598 545.609 865.198 547.098 864.033 547.771L861.42 549.28C860.255 549.953 858.765 549.553 858.092 548.388L856.796 546.143C856.473 545.583 855.941 545.175 855.317 545.008L852.009 544.122C851.385 543.954 850.72 544.042 850.161 544.365L846.27 546.611C845.105 547.284 844.705 548.774 845.378 549.939L847.886 554.282C848.558 555.447 848.159 556.936 846.994 557.609L840.923 561.114C839.758 561.787 838.268 561.388 837.595 560.223L834.09 554.151C833.417 552.986 833.817 551.496 834.982 550.824L839.242 548.364C840.407 547.691 840.806 546.202 840.134 545.037L838.672 542.505C837.999 541.34 836.509 540.941 835.344 541.613L831.084 544.073C829.919 544.746 828.429 544.346 827.757 543.181L824.251 537.11Z" fill="white" fill-opacity="0.05"/>
<path fill-rule="evenodd" clip-rule="evenodd" d="M1247.2 477.618C1247.58 476.198 1247.19 474.492 1246.05 472.501L1241.59 464.779C1240.44 462.788 1239.15 461.602 1237.73 461.221C1236.31 460.841 1234.61 461.225 1232.62 462.373L1223.1 467.869C1221.11 469.019 1219.92 470.305 1219.54 471.724C1219.16 473.144 1219.54 474.849 1220.69 476.841L1225.15 484.564C1226.3 486.554 1227.59 487.74 1229.01 488.121C1230.43 488.503 1232.13 488.118 1234.12 486.968L1243.64 481.472C1245.63 480.324 1246.82 479.039 1247.2 477.618ZM1234.15 467.256C1235.29 466.6 1236.18 466.841 1236.84 467.978L1240.9 475.011C1241.56 476.148 1241.32 477.046 1240.18 477.703L1232.59 482.086C1231.45 482.742 1230.56 482.501 1229.9 481.364L1225.84 474.33C1225.18 473.191 1225.42 472.293 1226.56 471.637L1234.15 467.256ZM1169.74 523.761L1174.86 520.804L1173.15 504.437L1186.46 514.107L1191.58 511.151L1172.72 497.335L1172.42 497.507L1172.42 497.506L1167.21 500.514L1169.74 523.761ZM1154.04 520.469L1155.4 519.684L1157.97 505.85L1152.41 509.058L1150.44 520.054L1146.36 522.409L1142.09 515.016L1137.44 517.701L1148.14 536.232L1152.79 533.548L1148.52 526.154L1152.6 523.8L1163.11 527.589L1168.67 524.382L1155.4 519.686L1154.04 520.471L1154.04 520.469ZM1183.95 490.847L1188.74 488.082L1199.44 506.613L1194.65 509.378L1183.95 490.847ZM1215.76 477.758L1213.48 473.801L1192.84 485.719L1195.12 489.676L1203.05 485.099L1211.46 499.673L1216.25 496.908L1207.84 482.333L1215.76 477.758Z" fill="white" fill-opacity="0.05"/>
<path fill-rule="evenodd" clip-rule="evenodd" d="M1098.59 537.11C1097.92 535.945 1098.32 534.455 1099.49 533.782L1105.56 530.277C1106.72 529.605 1108.21 530.004 1108.88 531.169L1111.34 535.429C1112.02 536.594 1113.51 536.993 1114.67 536.321L1118.69 534.003C1119.25 533.68 1119.65 533.148 1119.82 532.524L1120.66 529.41C1120.82 528.786 1120.74 528.121 1120.41 527.561L1119.09 525.276C1118.42 524.111 1118.82 522.621 1119.98 521.948L1122.6 520.439C1123.76 519.767 1125.25 520.166 1125.93 521.331L1127.43 523.945C1128.11 525.11 1127.71 526.6 1126.54 527.272L1124.39 528.515C1123.83 528.838 1123.42 529.371 1123.25 529.995L1122.33 533.447C1122.16 534.071 1122.25 534.736 1122.57 535.295L1125.52 540.405C1125.85 540.965 1126.38 541.373 1127 541.54L1130.39 542.448C1131.01 542.615 1131.68 542.528 1132.24 542.205L1134.43 540.938C1135.6 540.265 1137.09 540.664 1137.76 541.83L1139.27 544.444C1139.94 545.609 1139.54 547.098 1138.38 547.771L1135.76 549.28C1134.6 549.953 1133.11 549.553 1132.44 548.388L1131.14 546.143C1130.82 545.583 1130.28 545.175 1129.66 545.008L1126.35 544.122C1125.73 543.954 1125.06 544.042 1124.5 544.365L1120.61 546.611C1119.45 547.284 1119.05 548.774 1119.72 549.939L1122.23 554.282C1122.9 555.447 1122.5 556.936 1121.34 557.609L1115.27 561.114C1114.1 561.787 1112.61 561.388 1111.94 560.223L1108.43 554.151C1107.76 552.986 1108.16 551.496 1109.33 550.824L1113.59 548.364C1114.75 547.691 1115.15 546.202 1114.48 545.037L1113.02 542.505C1112.34 541.34 1110.85 540.941 1109.69 541.613L1105.43 544.073C1104.26 544.746 1102.77 544.346 1102.1 543.181L1098.59 537.11Z" fill="white" fill-opacity="0.05"/>
<path fill-rule="evenodd" clip-rule="evenodd" d="M1521.54 477.618C1521.92 476.198 1521.54 474.492 1520.39 472.501L1515.93 464.779C1514.78 462.788 1513.5 461.602 1512.08 461.221C1510.66 460.841 1508.95 461.225 1506.96 462.373L1497.44 467.869C1495.45 469.019 1494.27 470.305 1493.89 471.724C1493.5 473.144 1493.89 474.849 1495.04 476.841L1499.5 484.564C1500.65 486.554 1501.93 487.74 1503.35 488.121C1504.77 488.503 1506.48 488.118 1508.47 486.968L1517.99 481.472C1519.98 480.324 1521.16 479.039 1521.54 477.618ZM1508.49 467.256C1509.63 466.6 1510.53 466.841 1511.18 467.978L1515.25 475.011C1515.91 476.148 1515.67 477.046 1514.53 477.703L1506.94 482.086C1505.8 482.742 1504.9 482.501 1504.24 481.364L1500.18 474.33C1499.53 473.191 1499.77 472.293 1500.9 471.637L1508.49 467.256ZM1444.09 523.761L1449.21 520.804L1447.49 504.437L1460.81 514.107L1465.93 511.151L1447.06 497.335L1446.76 497.507L1446.76 497.506L1441.55 500.514L1444.09 523.761ZM1428.39 520.469L1429.75 519.684L1432.31 505.85L1426.76 509.058L1424.78 520.054L1420.7 522.409L1416.44 515.016L1411.79 517.701L1422.49 536.232L1427.14 533.548L1422.87 526.154L1426.94 523.8L1437.46 527.589L1443.01 524.382L1429.75 519.686L1428.39 520.471L1428.39 520.469ZM1458.3 490.847L1463.09 488.082L1473.79 506.613L1469 509.378L1458.3 490.847ZM1490.11 477.758L1487.82 473.801L1467.18 485.719L1469.46 489.676L1477.39 485.099L1485.81 499.673L1490.6 496.908L1482.18 482.333L1490.11 477.758Z" fill="white" fill-opacity="0.05"/>
<path fill-rule="evenodd" clip-rule="evenodd" d="M1372.94 537.11C1372.27 535.945 1372.67 534.455 1373.83 533.782L1379.9 530.277C1381.07 529.605 1382.56 530.004 1383.23 531.169L1385.69 535.429C1386.36 536.594 1387.85 536.993 1389.02 536.321L1393.03 534.003C1393.59 533.68 1394 533.148 1394.17 532.524L1395 529.41C1395.17 528.786 1395.08 528.121 1394.76 527.561L1393.44 525.276C1392.76 524.111 1393.16 522.621 1394.33 521.948L1396.94 520.439C1398.11 519.767 1399.6 520.166 1400.27 521.331L1401.78 523.945C1402.45 525.11 1402.05 526.6 1400.89 527.272L1398.73 528.515C1398.17 528.838 1397.77 529.371 1397.6 529.995L1396.67 533.447C1396.51 534.071 1396.59 534.736 1396.92 535.295L1399.87 540.405C1400.19 540.965 1400.72 541.373 1401.35 541.54L1404.73 542.448C1405.36 542.615 1406.02 542.528 1406.58 542.205L1408.78 540.938C1409.94 540.265 1411.43 540.664 1412.1 541.83L1413.61 544.444C1414.29 545.609 1413.89 547.098 1412.72 547.771L1410.11 549.28C1408.94 549.953 1407.45 549.553 1406.78 548.388L1405.48 546.143C1405.16 545.583 1404.63 545.175 1404.01 545.008L1400.7 544.122C1400.07 543.954 1399.41 544.042 1398.85 544.365L1394.96 546.611C1393.79 547.284 1393.39 548.774 1394.07 549.939L1396.57 554.282C1397.25 555.447 1396.85 556.936 1395.68 557.609L1389.61 561.114C1388.45 561.787 1386.96 561.388 1386.28 560.223L1382.78 554.151C1382.11 552.986 1382.51 551.496 1383.67 550.824L1387.93 548.364C1389.1 547.691 1389.49 546.202 1388.82 545.037L1387.36 542.505C1386.69 541.34 1385.2 540.941 1384.03 541.613L1379.77 544.073C1378.61 544.746 1377.12 544.346 1376.45 543.181L1372.94 537.11Z" fill="white" fill-opacity="0.05"/>
<path fill-rule="evenodd" clip-rule="evenodd" d="M149.822 704.95C150.202 703.529 149.818 701.824 148.669 699.833L144.21 692.11C143.061 690.12 141.776 688.934 140.355 688.553C138.934 688.172 137.229 688.556 135.239 689.705L125.72 695.201C123.73 696.351 122.545 697.636 122.163 699.056C121.782 700.475 122.167 702.181 123.317 704.173L127.775 711.896C128.926 713.886 130.211 715.072 131.63 715.453C133.05 715.834 134.756 715.45 136.747 714.3L146.266 708.804C148.256 707.656 149.441 706.371 149.822 704.95ZM136.771 694.588C137.909 693.932 138.806 694.173 139.462 695.31L143.527 702.342C144.185 703.48 143.945 704.377 142.807 705.035L135.216 709.418C134.077 710.074 133.179 709.833 132.523 708.696L128.461 701.662C127.805 700.523 128.046 699.625 129.183 698.969L136.771 694.588ZM72.3641 751.093L77.4859 748.136L75.7695 731.769L89.0856 741.439L94.2057 738.483L75.3403 724.666L75.0427 724.838L75.0427 724.838L69.8331 727.846L72.3641 751.093ZM56.6667 747.8L58.0259 747.016L60.5903 733.182L55.0348 736.39L53.0601 747.386L48.9825 749.74L44.7145 742.348L40.0643 745.033L50.7634 763.564L55.4136 760.879L51.1447 753.486L55.2214 751.132L65.7343 754.921L71.2898 751.713L58.0274 747.017L56.6678 747.802L56.6667 747.8ZM86.577 718.179L91.3666 715.414L102.066 733.945L97.276 736.71L86.577 718.179ZM118.385 705.09L116.101 701.133L95.4584 713.051L97.7428 717.008L105.671 712.43L114.086 727.005L118.875 724.24L110.461 709.665L118.385 705.09Z" fill="white" fill-opacity="0.05"/>
<path fill-rule="evenodd" clip-rule="evenodd" d="M1.2179 764.441C0.545273 763.276 0.944439 761.787 2.10946 761.114L8.18061 757.609C9.34563 756.936 10.8353 757.335 11.508 758.501L13.9678 762.761C14.6404 763.926 16.1301 764.325 17.2951 763.653L21.3097 761.335C21.8692 761.012 22.2775 760.48 22.4447 759.856L23.279 756.741C23.4462 756.118 23.3587 755.453 23.0357 754.893L21.7159 752.607C21.0433 751.442 21.4425 749.953 22.6075 749.28L25.2212 747.771C26.3862 747.098 27.8759 747.498 28.5486 748.663L30.0578 751.277C30.7304 752.442 30.3312 753.931 29.1662 754.604L27.0127 755.847C26.4533 756.17 26.045 756.702 25.8778 757.326L24.9529 760.779C24.7857 761.403 24.8732 762.067 25.1962 762.627L28.1465 767.737C28.4695 768.296 29.0015 768.705 29.6255 768.872L33.013 769.78C33.637 769.947 34.3019 769.859 34.8614 769.536L37.0552 768.27C38.2202 767.597 39.7099 767.996 40.3825 769.161L41.8917 771.775C42.5644 772.94 42.1652 774.43 41.0002 775.103L38.3865 776.612C37.2215 777.284 35.7318 776.885 35.0591 775.72L33.7627 773.475C33.4397 772.915 32.9077 772.507 32.2837 772.34L28.9759 771.453C28.3518 771.286 27.687 771.374 27.1275 771.697L23.2365 773.943C22.0715 774.616 21.6723 776.105 22.3449 777.27L24.8523 781.613C25.525 782.778 25.1258 784.268 23.9608 784.941L17.8896 788.446C16.7246 789.119 15.2349 788.719 14.5623 787.554L11.0568 781.483C10.3842 780.318 10.7834 778.828 11.9484 778.155L16.2088 775.696C17.3738 775.023 17.773 773.533 17.1003 772.368L15.6386 769.836C14.9659 768.671 13.4762 768.272 12.3112 768.945L8.05073 771.405C6.8857 772.077 5.39599 771.678 4.72336 770.513L1.2179 764.441Z" fill="white" fill-opacity="0.05"/>
<path fill-rule="evenodd" clip-rule="evenodd" d="M424.166 704.95C424.547 703.529 424.163 701.824 423.013 699.833L418.555 692.11C417.405 690.12 416.12 688.934 414.7 688.553C413.279 688.172 411.574 688.556 409.584 689.705L400.065 695.201C398.075 696.351 396.889 697.636 396.508 699.056C396.127 700.475 396.511 702.181 397.661 704.173L402.12 711.896C403.271 713.886 404.556 715.072 405.975 715.453C407.395 715.834 409.1 715.45 411.092 714.3L420.611 708.804C422.601 707.656 423.786 706.371 424.166 704.95ZM411.116 694.588C412.254 693.932 413.151 694.173 413.807 695.31L417.872 702.342C418.53 703.48 418.29 704.377 417.152 705.035L409.56 709.418C408.422 710.074 407.524 709.833 406.867 708.696L402.806 701.662C402.15 700.523 402.391 699.625 403.528 698.969L411.116 694.588ZM346.709 751.093L351.831 748.136L350.114 731.769L363.43 741.439L368.55 738.483L349.685 724.666L349.387 724.838L349.387 724.838L344.178 727.846L346.709 751.093ZM331.011 747.8L332.371 747.016L334.935 733.182L329.379 736.39L327.405 747.386L323.327 749.74L319.059 742.348L314.409 745.033L325.108 763.564L329.758 760.879L325.489 753.486L329.566 751.132L340.079 754.921L345.635 751.713L332.372 747.017L331.012 747.802L331.011 747.8ZM360.922 718.179L365.711 715.414L376.41 733.945L371.621 736.71L360.922 718.179ZM392.73 705.09L390.445 701.133L369.803 713.051L372.088 717.008L380.016 712.43L388.43 727.005L393.22 724.24L384.805 709.665L392.73 705.09Z" fill="white" fill-opacity="0.05"/>
<path fill-rule="evenodd" clip-rule="evenodd" d="M275.563 764.441C274.89 763.276 275.289 761.787 276.454 761.114L282.525 757.609C283.69 756.936 285.18 757.335 285.853 758.501L288.313 762.761C288.985 763.926 290.475 764.325 291.64 763.653L295.654 761.335C296.214 761.012 296.622 760.48 296.789 759.856L297.624 756.741C297.791 756.118 297.703 755.453 297.38 754.893L296.061 752.607C295.388 751.442 295.787 749.953 296.952 749.28L299.566 747.771C300.731 747.098 302.221 747.498 302.893 748.663L304.402 751.277C305.075 752.442 304.676 753.931 303.511 754.604L301.357 755.847C300.798 756.17 300.39 756.702 300.223 757.326L299.298 760.779C299.13 761.403 299.218 762.067 299.541 762.627L302.491 767.737C302.814 768.296 303.346 768.705 303.97 768.872L307.358 769.78C307.982 769.947 308.647 769.859 309.206 769.536L311.4 768.27C312.565 767.597 314.055 767.996 314.727 769.161L316.236 771.775C316.909 772.94 316.51 774.43 315.345 775.103L312.731 776.612C311.566 777.284 310.076 776.885 309.404 775.72L308.107 773.475C307.784 772.915 307.252 772.507 306.628 772.34L303.321 771.453C302.697 771.286 302.032 771.374 301.472 771.697L297.581 773.943C296.416 774.616 296.017 776.105 296.69 777.27L299.197 781.613C299.87 782.778 299.471 784.268 298.306 784.941L292.234 788.446C291.069 789.119 289.58 788.719 288.907 787.554L285.402 781.483C284.729 780.318 285.128 778.828 286.293 778.155L290.553 775.696C291.719 775.023 292.118 773.533 291.445 772.368L289.983 769.836C289.311 768.671 287.821 768.272 286.656 768.945L282.395 771.405C281.23 772.077 279.741 771.678 279.068 770.513L275.563 764.441Z" fill="white" fill-opacity="0.05"/>
</svg>
