<svg xmlns="http://www.w3.org/2000/svg" width="202" height="41" viewBox="0 0 202 41" fill="none">
    <path d="M201.999 27.0821C201.999 29.9297 201.343 31.9977 200.03 33.2861C198.717 34.5745 196.61 35.2187 193.709 35.2187H179.832C176.928 35.2187 174.821 34.5745 173.509 33.2861C172.198 31.9977 171.542 29.9297 171.54 27.0821V16.0355C171.54 13.1863 172.196 11.1183 173.509 9.83154C174.823 8.54479 176.93 7.90057 179.832 7.89893H193.709C196.61 7.89893 198.717 8.54315 200.03 9.83154C201.343 11.1199 201.999 13.1879 201.999 16.0355V27.0821ZM194.788 16.5279C194.788 14.9014 193.96 14.0873 192.302 14.0857H181.24C179.582 14.0857 178.752 14.8998 178.751 16.5279V26.5897C178.751 28.2162 179.58 29.0303 181.24 29.0319H192.307C193.966 29.0319 194.795 28.2178 194.793 26.5897L194.788 16.5279Z" fill="white"/>
    <path d="M93.6816 34.8135H86.2148L98.1225 8.30615H105.717L93.6816 34.8135Z" fill="white"/>
    <path d="M110.591 34.8135H118.056L106.15 8.30615H98.5557L110.591 34.8135Z" fill="white"/>
    <path d="M73.113 21.5586H65.1445L76.5504 8.30615H84.6495L73.113 21.5586Z" fill="white"/>
    <path d="M84.6495 34.8135H76.5504L65.1445 21.561H73.113L84.6495 34.8135Z" fill="white"/>
    <path d="M71.1287 18.8789H55.4375V24.236H71.1287V18.8789Z" fill="white"/>
    <path d="M61.5029 8.30615H54.7236V34.8135H61.5029V8.30615Z" fill="white"/>
    <path d="M129.516 8.30615H122.533V34.8135H129.516V8.30615Z" fill="white"/>
    <path d="M165.57 13.9652V8.30542L135.477 8.30542V13.9652L165.57 13.9652Z" fill="white"/>
    <path d="M154.02 8.30615H147.037V34.8135H154.02V8.30615Z" fill="white"/>
    <path fill-rule="evenodd" clip-rule="evenodd" d="M0.00017613 4.55195C0.00017613 2.56357 1.61209 0.95166 3.60047 0.95166H11.4011C13.3895 0.95166 15.0014 2.56356 15.0014 4.55195V9.47968C15.0014 11.4681 16.6133 13.08 18.6017 13.08H23.7288C24.6719 13.08 25.5773 12.71 26.2504 12.0495L28.8055 9.5423C29.4955 8.86526 29.8843 7.93919 29.8843 6.97251V4.55195C29.8843 2.56357 31.4962 0.95166 33.4845 0.95166H36.2448C38.2332 0.95166 39.8451 2.56357 39.8451 4.55196V7.12525C39.8451 9.11363 38.2332 10.7255 36.2448 10.7255H33.8232C32.8801 10.7255 31.9747 11.0956 31.3016 11.756L28.4432 14.5608C27.7532 15.2378 27.3645 16.1639 27.3645 17.1306V23.9228C27.3645 24.8894 27.7532 25.8155 28.4432 26.4925L31.2459 29.2426C31.919 29.9031 32.8244 30.2731 33.7674 30.2731H36.2448C38.2332 30.2731 39.8451 31.885 39.8451 33.8734V36.4467C39.8451 38.4351 38.2332 40.047 36.2448 40.047H33.4845C31.4962 40.047 29.8843 38.4351 29.8843 36.4467V34.0808C29.8843 33.1141 29.4955 32.188 28.8055 31.511L26.0734 28.8302C25.4003 28.1697 24.4949 27.7997 23.5519 27.7997H18.6015C16.6131 27.7997 15.0012 29.4116 15.0012 31.4V36.4482C15.0012 38.4366 13.3893 40.0485 11.4009 40.0485H3.60029C1.61191 40.0485 0 38.4366 0 36.4482V28.9291C0 26.9407 1.61191 25.3288 3.60029 25.3288H8.76298C10.7514 25.3288 12.3633 23.7169 12.3633 21.7285V19.2717C12.3633 17.2833 10.7514 15.6714 8.76298 15.6714H3.60047C1.61208 15.6714 0.00017613 14.0595 0.00017613 12.0711V4.55195Z" fill="#32FFDC"/>
</svg>