<svg width="380" height="70" viewBox="0 0 380 70" fill="none" xmlns="http://www.w3.org/2000/svg">
<g clip-path="url(#clip0_3782_702)">
<path fill-rule="evenodd" clip-rule="evenodd" d="M376.295 55.5271C378.765 53.2369 380 49.5608 380 44.499V24.8632C380 19.8014 378.765 16.1255 376.295 13.8353C373.825 11.5451 369.862 10.3999 364.406 10.3999L338.301 10.3999C332.842 10.4028 328.877 11.548 326.407 13.8353C323.937 16.1225 322.702 19.7985 322.702 24.8632V44.499C322.705 49.5608 323.94 53.2369 326.407 55.5271C328.874 57.8173 332.838 58.9623 338.301 58.9623H364.406C369.862 58.9623 373.825 57.8173 376.295 55.5271ZM361.758 21.3972C364.877 21.4001 366.435 22.8472 366.435 25.7384L366.445 43.6238C366.448 46.5179 364.889 47.965 361.768 47.965H340.948C337.827 47.9621 336.266 46.515 336.266 43.6238V25.7384C336.269 22.8443 337.83 21.3972 340.948 21.3972H361.758ZM162.185 58.2405L176.231 58.2405L192.137 25.1389L208.043 58.2405H222.084L199.688 11.1222H198.872L185.402 11.1222H184.585L162.185 58.2405ZM133.809 34.6792H137.537L159.239 11.1222L144.003 11.1222L126.884 29.9178H115.7V11.1222H102.947V58.2405H115.7V39.4404H126.88L144.003 58.2404H159.239L137.537 34.6834H133.809V34.6792ZM230.504 11.1222H243.639V58.2405H230.504V11.1222ZM311.471 21.1827V11.1222H289.738L276.602 11.1222L254.861 11.1222V21.1827H276.602V58.2405H289.738V21.1827H311.471Z" fill="white" fill-opacity="0.16"/>
<path fill-rule="evenodd" clip-rule="evenodd" d="M0.00062864 4.38264C0.00062864 1.96218 1.9628 0 4.38327 0L23.0095 0C25.43 0 27.3921 1.96217 27.3921 4.38264V18.188C27.3921 20.6084 29.3543 22.5706 31.7748 22.5706L44.2027 22.5706C45.365 22.5706 46.4798 22.1089 47.3017 21.287L53.2797 15.3089C54.1016 14.487 54.5633 13.3723 54.5633 12.2099V4.38264C54.5633 1.96218 56.5255 0 58.946 0L68.3687 0C70.7891 0 72.7513 1.96218 72.7513 4.38264V13.8053C72.7513 16.2258 70.7891 18.188 68.3687 18.188H60.8932C59.7309 18.188 58.6161 18.6497 57.7942 19.4716L51.2472 26.0186C50.4253 26.8406 49.9635 27.9553 49.9635 29.1176V43.7422C49.9635 44.9045 50.4253 46.0193 51.2472 46.8412L57.6862 53.2802C58.5081 54.1021 59.6228 54.5638 60.7852 54.5638L68.3687 54.5638C70.7891 54.5638 72.7513 56.526 72.7513 58.9465V68.3692C72.7513 70.7896 70.7891 72.7518 68.3687 72.7518H58.946C56.5255 72.7518 54.5633 70.7896 54.5633 68.3692V60.6499C54.5633 59.4875 54.1016 58.3728 53.2797 57.5509L46.9746 51.2458C46.1527 50.4239 45.0379 49.9621 43.8756 49.9621H31.7742C29.3537 49.9621 27.3915 51.9243 27.3915 54.3448V68.3692C27.3915 70.7896 25.4293 72.7518 23.0089 72.7518H4.38264C1.96218 72.7518 0 70.7896 0 68.3692L0 49.7429C0 47.3225 1.96217 45.3603 4.38264 45.3603H18.1894C20.6098 45.3603 22.572 43.3981 22.572 40.9776V31.7742C22.572 29.3537 20.6098 27.3915 18.1894 27.3915H4.38327C1.96281 27.3915 0.00062864 25.4293 0.00062864 23.0089L0.00062864 4.38264Z" fill="white" fill-opacity="0.16"/>
</g>
<defs>
<clipPath id="clip0_3782_702">
<rect width="380" height="69.4946" fill="white"/>
</clipPath>
</defs>
</svg>
