<svg width="36" height="36" viewBox="0 0 36 36" fill="none" xmlns="http://www.w3.org/2000/svg">
<path d="M32.0007 15.5539C31.0477 15.5539 30.2746 16.3456 30.2746 17.3226C30.2746 17.5785 30.3301 17.8204 30.4257 18.0398L24.2337 20.8597L19.0587 11.7693C19.5705 11.4624 19.9186 10.8995 19.9186 10.2477C19.9186 9.27075 19.1459 8.47903 18.1924 8.47903C17.239 8.47903 16.4662 9.27075 16.4662 10.2477C16.4662 10.8802 16.7929 11.4311 17.2801 11.7436L11.7198 20.8597L5.52773 18.0398C5.62301 17.8201 5.67891 17.5785 5.67891 17.3226C5.67891 16.3459 4.90617 15.5539 3.95273 15.5539C2.9993 15.5539 2.22656 16.3456 2.22656 17.3226C2.22656 18.2992 2.9993 19.0913 3.95273 19.0913C4.09301 19.0913 4.22766 19.0695 4.35809 19.0372L7.40438 31.9142H28.5484L31.5947 19.0372C31.7251 19.0695 31.8598 19.0913 32 19.0913C32.9535 19.0913 33.7262 18.2996 33.7262 17.3226C33.7266 16.3459 32.9538 15.5539 32.0007 15.5539Z" fill="url(#paint0_linear_203_11589)"/>
<path d="M16.3434 23.9417C16.3901 23.7364 16.4367 23.5451 16.4834 23.3677C16.5301 23.1811 16.5767 23.0037 16.6234 22.8357C16.6701 22.6677 16.7167 22.4997 16.7634 22.3317C16.6794 22.4251 16.5814 22.5277 16.4694 22.6397C16.3667 22.7517 16.2641 22.8497 16.1614 22.9337L15.1254 23.8017L14.1034 22.2757L17.6874 19.2657H19.7594L17.6314 29.2617H15.2374L16.3434 23.9417Z" fill="#6E2A00"/>
<defs>
<linearGradient id="paint0_linear_203_11589" x1="17.9764" y1="8.47903" x2="17.9764" y2="31.9142" gradientUnits="userSpaceOnUse">
<stop stop-color="#D1B673"/>
<stop offset="0.5" stop-color="#FAF6D0"/>
<stop offset="1" stop-color="#E8CB89"/>
</linearGradient>
</defs>
</svg>
