<svg width="36" height="35" viewBox="0 0 36 35" fill="none" xmlns="http://www.w3.org/2000/svg">
<g clip-path="url(#clip0_203_11597)">
<path d="M32.0007 19.5678C31.0477 19.5678 30.2746 20.3595 30.2746 21.3365C30.2746 21.5924 30.3301 21.8343 30.4257 22.0537L24.2337 24.8735L19.0587 15.7832C19.5705 15.4763 19.9186 14.9134 19.9186 14.2616C19.9186 13.2846 19.1459 12.4929 18.1924 12.4929C17.239 12.4929 16.4662 13.2846 16.4662 14.2616C16.4662 14.8941 16.7929 15.445 17.2801 15.7575L11.7198 24.8735L5.52773 22.0537C5.62301 21.8339 5.67891 21.5924 5.67891 21.3365C5.67891 20.3598 4.90617 19.5678 3.95273 19.5678C2.9993 19.5678 2.22656 20.3595 2.22656 21.3365C2.22656 22.3131 2.9993 23.1052 3.95273 23.1052C4.09301 23.1052 4.22766 23.0834 4.35809 23.051L7.40438 35.9281H28.5484L31.5947 23.051C31.7251 23.0834 31.8598 23.1052 32 23.1052C32.9535 23.1052 33.7262 22.3135 33.7262 21.3365C33.7266 20.3598 32.9538 19.5678 32.0007 19.5678Z" fill="url(#paint0_linear_203_11597)"/>
</g>
<path d="M16.184 32.0681C15.7547 32.0681 15.3673 32.0261 15.022 31.9421C14.686 31.8674 14.35 31.7321 14.014 31.5361L14.028 29.3241C14.364 29.5761 14.7327 29.7581 15.134 29.8701C15.5353 29.9728 15.8947 30.0241 16.212 30.0241C16.4173 30.0241 16.6087 29.9961 16.786 29.9401C16.9633 29.8841 17.1127 29.8048 17.234 29.7021C17.3647 29.5901 17.4673 29.4501 17.542 29.2821C17.6167 29.1141 17.654 28.9181 17.654 28.6941C17.654 28.5074 17.612 28.3488 17.528 28.2181C17.444 28.0781 17.2993 27.9708 17.094 27.8961C16.898 27.8214 16.6133 27.7841 16.24 27.7841H15.722L16.128 25.8241H16.674C16.9447 25.8241 17.1873 25.8008 17.402 25.7541C17.6167 25.6981 17.7987 25.6141 17.948 25.5021C18.1067 25.3808 18.228 25.2361 18.312 25.0681C18.396 24.8908 18.438 24.6854 18.438 24.4521C18.438 24.2654 18.3867 24.1161 18.284 24.0041C18.1907 23.8921 18.0273 23.8361 17.794 23.8361C17.5793 23.8361 17.3273 23.8874 17.038 23.9901C16.758 24.0928 16.4547 24.2561 16.128 24.4801L15.526 22.7161C16.002 22.3801 16.4547 22.1421 16.884 22.0021C17.3227 21.8621 17.8173 21.7921 18.368 21.7921C18.8253 21.7921 19.2453 21.8668 19.628 22.0161C20.0107 22.1561 20.3187 22.3801 20.552 22.6881C20.7853 22.9868 20.902 23.3834 20.902 23.8781C20.902 24.3354 20.804 24.7508 20.608 25.1241C20.4213 25.4881 20.16 25.8054 19.824 26.0761C19.4973 26.3374 19.1147 26.5381 18.676 26.6781V26.7341C19.18 26.8461 19.5533 27.0748 19.796 27.4201C20.048 27.7561 20.174 28.1761 20.174 28.6801C20.174 29.2028 20.0713 29.6741 19.866 30.0941C19.6607 30.5141 19.376 30.8688 19.012 31.1581C18.648 31.4474 18.2233 31.6714 17.738 31.8301C17.262 31.9888 16.744 32.0681 16.184 32.0681Z" fill="#7D5842"/>
<defs>
<linearGradient id="paint0_linear_203_11597" x1="17.9764" y1="12.4929" x2="17.9764" y2="35.9281" gradientUnits="userSpaceOnUse">
<stop stop-color="#FBCCB6"/>
<stop offset="0.475" stop-color="#FEEDE3"/>
<stop offset="1" stop-color="#F5C6B1"/>
</linearGradient>
<clipPath id="clip0_203_11597">
<rect width="36" height="34.5489" fill="white"/>
</clipPath>
</defs>
</svg>
