<svg width="358" height="140" viewBox="0 0 358 140" fill="none" xmlns="http://www.w3.org/2000/svg">
<g clip-path="url(#clip0_450_6707)">
<g filter="url(#filter0_b_450_6707)">
<path d="M79.1465 12.6758H300.678C332.337 12.6758 358.002 38.3408 358.002 70.0002V70.0002C358.002 101.66 332.337 127.325 300.677 127.325H79.1465V12.6758Z" fill="#102622"/>
<path d="M80.9957 14.525H300.678C331.316 14.525 356.153 39.3621 356.153 70.0002C356.153 100.638 331.316 125.475 300.677 125.475H80.9957V14.525Z" stroke="url(#paint0_linear_450_6707)" stroke-opacity="0.3" stroke-width="3.69835"/>
</g>
<path d="M162.951 60.9955C160.732 60.9955 158.631 60.6552 156.649 59.9747C154.666 59.2646 152.906 58.2587 151.367 56.9569C149.858 55.6551 148.66 54.1017 147.773 52.297C146.914 50.4626 146.485 48.4359 146.485 46.2169C146.485 44.1458 146.914 42.1931 147.773 40.3587C148.631 38.5243 149.844 36.897 151.412 35.4769C152.98 34.0567 154.844 32.9472 157.004 32.1484C159.193 31.3199 161.59 30.9057 164.193 30.9057C165.199 30.9057 166.146 30.9797 167.034 31.1276C167.951 31.246 168.838 31.4087 169.696 31.6158C170.554 31.7933 171.398 32.03 172.226 32.3259C172.551 32.4442 172.803 32.607 172.98 32.8141C173.188 33.0212 173.306 33.3022 173.335 33.6573C173.454 34.5449 173.543 35.4325 173.602 36.3201C173.661 37.1781 173.691 38.0361 173.691 38.8941C173.72 39.19 173.617 39.4119 173.38 39.5598C173.143 39.6782 172.892 39.693 172.625 39.6042C172.359 39.4859 172.167 39.264 172.048 38.9385C171.812 38.1101 171.531 37.3408 171.205 36.6308C170.909 35.8911 170.451 35.2698 169.829 34.7668C169.149 34.2046 168.291 33.7608 167.255 33.4354C166.22 33.0803 165.007 32.9028 163.616 32.9028C162.019 32.9028 160.569 33.2283 159.267 33.8792C157.965 34.5301 156.841 35.4325 155.894 36.5864C154.977 37.7403 154.267 39.0421 153.764 40.4918C153.261 41.9416 153.009 43.4653 153.009 45.063C153.009 46.9565 153.231 48.7465 153.675 50.433C154.148 52.1194 154.844 53.6136 155.761 54.9154C156.708 56.1876 157.847 57.1936 159.178 57.9332C160.51 58.6433 162.033 58.9984 163.749 58.9984C165.939 58.9984 167.714 58.525 169.075 57.5782C170.436 56.6314 171.59 55.226 172.537 53.3621C172.773 52.8887 173.099 52.6668 173.513 52.6964C173.927 52.6964 174.134 52.9331 174.134 53.4065C174.134 53.7615 174.09 54.2053 174.001 54.7379C173.912 55.2704 173.779 55.8474 173.602 56.4687C173.454 57.0604 173.276 57.6522 173.069 58.2439C172.951 58.5989 172.803 58.8652 172.625 59.0427C172.448 59.2203 172.182 59.383 171.827 59.5309C170.702 60.0043 169.371 60.3593 167.832 60.596C166.323 60.8623 164.696 60.9955 162.951 60.9955ZM186.738 60.9955C185.11 60.9955 183.675 60.5813 182.433 59.7528C181.19 58.9244 180.214 57.7853 179.504 56.3355C178.794 54.8562 178.439 53.1846 178.439 51.3206C178.439 49.5158 178.853 47.8737 179.681 46.3944C180.539 44.8855 181.678 43.6872 183.098 42.7996C184.519 41.912 186.072 41.4682 187.758 41.4682C189.001 41.4682 190.11 41.7345 191.087 42.267C192.063 42.77 192.832 43.4801 193.395 44.3973C193.986 45.2849 194.282 46.2908 194.282 47.4151C194.282 48.4803 193.824 49.0128 192.906 49.0128H183.897C183.483 49.0128 183.172 49.1312 182.965 49.3679C182.788 49.575 182.699 49.9744 182.699 50.5661C182.699 51.8088 182.965 52.9331 183.498 53.939C184.06 54.945 184.8 55.7438 185.717 56.3355C186.634 56.9273 187.684 57.2232 188.868 57.2232C189.726 57.2232 190.51 57.0604 191.22 56.735C191.96 56.3799 192.655 55.9065 193.306 55.3148C193.424 55.226 193.528 55.1521 193.617 55.0929C193.705 55.0041 193.794 54.9598 193.883 54.9598C194.179 54.9598 194.327 55.1373 194.327 55.4923C194.327 55.9065 194.149 56.4095 193.794 57.0013C193.439 57.6817 192.921 58.3327 192.241 58.954C191.59 59.5753 190.791 60.0635 189.844 60.4185C188.897 60.8032 187.862 60.9955 186.738 60.9955ZM183.897 47.282H187.048C187.818 47.282 188.394 47.2672 188.779 47.2376C189.164 47.208 189.534 47.1489 189.889 47.0601C190.037 47.0305 190.14 46.9122 190.199 46.7051C190.258 46.4684 190.288 46.2021 190.288 45.9062C190.288 45.1074 189.977 44.4417 189.356 43.9091C188.764 43.347 188.025 43.0659 187.137 43.0659C186.516 43.0659 185.909 43.2582 185.317 43.6428C184.726 43.9979 184.238 44.4565 183.853 45.0186C183.468 45.5808 183.291 46.1577 183.32 46.7494C183.32 47.1045 183.513 47.282 183.897 47.282ZM198.285 60.5073C198.049 60.5073 197.842 60.4629 197.664 60.3741C197.487 60.2558 197.398 60.1079 197.398 59.9303C197.398 59.6936 197.487 59.5161 197.664 59.3978C197.871 59.2794 198.123 59.1759 198.419 59.0871C199.04 58.9096 199.469 58.7025 199.706 58.4658C199.972 58.1995 200.105 57.8445 200.105 57.4007V47.4151C200.105 46.7346 200.001 46.1725 199.794 45.7287C199.617 45.2553 199.217 44.9446 198.596 44.7967C198.478 44.7375 198.359 44.6636 198.241 44.5748C198.123 44.4565 198.064 44.2937 198.064 44.0866C198.064 43.702 198.226 43.4653 198.552 43.3765C199.439 43.1398 200.401 42.8292 201.436 42.4446C202.472 42.0303 203.345 41.6309 204.055 41.2463C204.203 41.1575 204.366 41.0688 204.543 40.98C204.721 40.8913 204.854 40.8469 204.942 40.8469C205.179 40.8469 205.298 40.9948 205.298 41.2907C205.298 41.409 205.283 41.6753 205.253 42.0895C205.253 42.5037 205.238 42.9623 205.209 43.4653C205.209 43.9387 205.194 44.3677 205.164 44.7523C205.164 44.9298 205.209 45.0186 205.298 45.0186C205.771 44.3973 206.303 43.8203 206.895 43.2878C207.487 42.7552 208.108 42.3114 208.759 41.9564C209.44 41.6013 210.12 41.4238 210.801 41.4238C211.659 41.4238 212.295 41.6013 212.709 41.9564C213.153 42.3114 213.375 42.7552 213.375 43.2878C213.375 43.702 213.256 44.1458 213.02 44.6192C212.813 45.0926 212.531 45.5068 212.176 45.8618C211.851 46.1873 211.481 46.35 211.067 46.35C210.83 46.35 210.579 46.3056 210.312 46.2169C210.046 46.0985 209.78 45.9654 209.514 45.8174C209.247 45.6991 208.966 45.5808 208.67 45.4624C208.404 45.3441 208.153 45.2849 207.916 45.2849C207.176 45.2849 206.511 45.566 205.919 46.1281C205.327 46.6607 205.031 47.7258 205.031 49.3235V57.1344C205.031 57.667 205.224 58.0812 205.608 58.377C205.993 58.6433 206.585 58.8948 207.383 59.1315C207.709 59.2203 207.946 59.3238 208.093 59.4422C208.271 59.5309 208.36 59.6936 208.36 59.9303C208.36 60.315 208.093 60.5073 207.561 60.5073C206.673 60.5073 205.83 60.4629 205.031 60.3741C204.262 60.315 203.493 60.2854 202.723 60.2854C202.22 60.2854 201.732 60.3002 201.259 60.3298C200.815 60.3593 200.357 60.3889 199.883 60.4185C199.41 60.4777 198.877 60.5073 198.285 60.5073ZM223.702 60.9955C221.927 60.9955 220.58 60.5221 219.663 59.5753C218.746 58.6285 218.287 57.2527 218.287 55.4479V45.1961C218.287 44.9594 218.184 44.7819 217.977 44.6636C217.799 44.5452 217.429 44.4713 216.867 44.4417H216.379C216.202 44.4417 216.054 44.3085 215.935 44.0422C215.817 43.7464 215.758 43.4653 215.758 43.199C215.758 43.1398 215.773 43.0659 215.802 42.9771C215.861 42.8588 215.935 42.7848 216.024 42.7552C216.705 42.4594 217.4 42.0599 218.11 41.557C218.82 41.0244 219.486 40.4918 220.107 39.9593C220.728 39.3971 221.246 38.9237 221.66 38.5391C221.867 38.3912 222.03 38.258 222.148 38.1397C222.296 38.0213 222.459 37.9622 222.637 37.9622C222.873 37.9622 223.051 38.0213 223.169 38.1397C223.317 38.2284 223.362 38.4208 223.302 38.7166L223.036 41.1575C223.006 41.5126 223.08 41.7493 223.258 41.8676C223.465 41.986 223.746 42.0451 224.101 42.0451H229.338C229.427 42.0451 229.516 42.1487 229.604 42.3558C229.693 42.5629 229.737 42.77 229.737 42.9771C229.737 43.3617 229.678 43.7168 229.56 44.0422C229.471 44.3677 229.353 44.5304 229.205 44.5304H224.989C224.308 44.5304 223.835 44.6044 223.569 44.7523C223.332 44.9003 223.214 45.2109 223.214 45.6843V54.2053C223.214 55.5071 223.465 56.4983 223.968 57.1788C224.471 57.8297 225.181 58.1551 226.098 58.1551C226.927 58.1551 227.548 58.0812 227.962 57.9332C228.406 57.7853 228.805 57.6078 229.161 57.4007C229.249 57.3415 229.323 57.3119 229.382 57.3119C229.53 57.3119 229.634 57.4007 229.693 57.5782C229.782 57.7557 229.826 57.948 229.826 58.1551C229.826 58.3031 229.53 58.6137 228.939 59.0871C228.376 59.5605 227.622 59.9895 226.675 60.3741C225.758 60.7884 224.767 60.9955 223.702 60.9955ZM232.865 60.5073C232.628 60.5073 232.436 60.4629 232.288 60.3741C232.14 60.2558 232.066 60.1079 232.066 59.9303C232.066 59.6936 232.155 59.5161 232.332 59.3978C232.51 59.2794 232.717 59.1907 232.954 59.1315C233.664 58.954 234.167 58.7617 234.463 58.5546C234.788 58.3474 234.951 57.9924 234.951 57.4894V47.8589C234.951 46.9122 234.803 46.2021 234.507 45.7287C234.211 45.2553 233.708 44.9594 232.998 44.8411C232.85 44.8115 232.732 44.7375 232.643 44.6192C232.554 44.4713 232.51 44.3085 232.51 44.131C232.51 43.7168 232.673 43.4949 232.998 43.4653C234.418 43.1694 235.646 42.77 236.682 42.267C237.747 41.7345 238.56 41.3203 239.122 41.0244C239.537 40.8173 239.803 40.7137 239.921 40.7137C240.247 40.7137 240.41 40.8617 240.41 41.1575C240.38 41.5717 240.321 42.1487 240.232 42.8884C240.143 43.5984 240.054 44.3677 239.966 45.1961C239.907 45.995 239.877 46.7494 239.877 47.4595V57.4451C239.877 57.8889 240.04 58.2291 240.365 58.4658C240.691 58.7025 241.208 58.9244 241.918 59.1315C242.155 59.2203 242.362 59.3238 242.54 59.4422C242.717 59.5309 242.806 59.6936 242.806 59.9303C242.806 60.2854 242.555 60.4629 242.052 60.4629C241.489 60.4629 240.942 60.4481 240.41 60.4185C239.907 60.3889 239.404 60.3593 238.901 60.3298C238.427 60.3002 237.924 60.2854 237.392 60.2854C236.889 60.2854 236.401 60.3002 235.927 60.3298C235.454 60.3593 234.966 60.3889 234.463 60.4185C233.989 60.4777 233.457 60.5073 232.865 60.5073ZM237.303 38.1397C236.445 38.1397 235.72 37.8438 235.128 37.2521C234.537 36.6603 234.241 35.9503 234.241 35.1218C234.241 34.2046 234.537 33.4502 235.128 32.8584C235.72 32.2667 236.445 31.9708 237.303 31.9708C238.191 31.9708 238.93 32.2667 239.522 32.8584C240.114 33.4502 240.41 34.2046 240.41 35.1218C240.41 35.9503 240.114 36.6603 239.522 37.2521C238.93 37.8438 238.191 38.1397 237.303 38.1397ZM246.236 60.5073C246.059 60.5073 245.867 60.4629 245.66 60.3741C245.452 60.2854 245.349 60.1522 245.349 59.9747C245.349 59.738 245.452 59.5605 245.66 59.4422C245.896 59.2942 246.133 59.1759 246.37 59.0871C246.813 58.9392 247.213 58.7617 247.568 58.5546C247.953 58.3179 248.145 57.8889 248.145 57.2675V44.7079C247.849 44.7079 247.509 44.7079 247.124 44.7079C246.739 44.6784 246.31 44.6488 245.837 44.6192C245.66 44.5896 245.512 44.4565 245.393 44.2198C245.305 43.9535 245.26 43.702 245.26 43.4653C245.26 43.2582 245.408 43.1103 245.704 43.0215C246.148 42.8736 246.547 42.7256 246.902 42.5777C247.287 42.4298 247.701 42.2374 248.145 42.0008C248.234 39.5155 248.677 37.4444 249.476 35.7875C250.275 34.1011 251.266 32.7697 252.45 31.7933C253.633 30.817 254.876 30.1217 256.178 29.7074C257.509 29.2636 258.722 29.0417 259.817 29.0417C261.03 29.0417 262.08 29.1601 262.968 29.3968C263.885 29.6335 264.595 30.0033 265.098 30.5063C265.631 30.9797 265.897 31.5862 265.897 32.3259C265.897 33.2431 265.66 33.9679 265.187 34.5005C264.743 35.0331 264.166 35.2994 263.456 35.2994C263.101 35.2994 262.761 35.1366 262.435 34.8112C262.11 34.4561 261.784 34.0419 261.459 33.5685C261.163 33.0951 260.704 32.5922 260.083 32.0596C259.462 31.527 258.633 31.2608 257.598 31.2608C256.799 31.2608 256.045 31.527 255.334 32.0596C254.654 32.5922 254.107 33.4058 253.692 34.5005C253.278 35.5952 253.071 37.0154 253.071 38.761V41.1132C253.071 41.4978 253.175 41.7493 253.382 41.8676C253.618 41.9564 253.885 42.0155 254.181 42.0451C255.453 42.1635 256.695 42.2522 257.908 42.3114C259.151 42.341 260.379 42.3262 261.592 42.267C262.213 42.1487 262.746 42.0303 263.19 41.912C263.663 41.7936 264.033 41.6753 264.299 41.557C264.595 41.409 264.876 41.2611 265.142 41.1132C265.438 40.9652 265.69 40.8321 265.897 40.7137C266.045 40.6841 266.178 40.7137 266.296 40.8025C266.415 40.8913 266.474 41.0096 266.474 41.1575C266.415 41.838 266.311 42.7552 266.163 43.9091C266.045 45.063 265.986 46.3796 265.986 47.8589V57.3119C265.986 57.8445 266.148 58.2291 266.474 58.4658C266.829 58.7025 267.347 58.9244 268.027 59.1315C268.264 59.2203 268.471 59.3238 268.648 59.4422C268.826 59.5605 268.915 59.738 268.915 59.9747C268.915 60.1522 268.826 60.2854 268.648 60.3741C268.501 60.4333 268.338 60.4629 268.16 60.4629C267.569 60.4629 267.006 60.4481 266.474 60.4185C265.971 60.3889 265.468 60.3593 264.965 60.3298C264.492 60.3002 263.989 60.2854 263.456 60.2854C262.953 60.2854 262.465 60.3002 261.991 60.3298C261.518 60.3593 261.03 60.3889 260.527 60.4185C260.054 60.4777 259.521 60.5073 258.929 60.5073C258.752 60.5073 258.574 60.4629 258.397 60.3741C258.219 60.2854 258.13 60.1522 258.13 59.9747C258.13 59.738 258.219 59.5605 258.397 59.4422C258.574 59.3238 258.781 59.2203 259.018 59.1315C259.639 58.954 260.127 58.7617 260.483 58.5546C260.867 58.3179 261.059 57.9184 261.059 57.3563V47.5483C261.059 46.6015 260.897 45.8766 260.571 45.3736C260.246 44.8707 259.728 44.5896 259.018 44.5304C258.84 44.5304 258.574 44.5304 258.219 44.5304C257.864 44.5008 257.465 44.486 257.021 44.486C256.666 44.486 256.296 44.5008 255.911 44.5304C255.556 44.5304 255.201 44.5304 254.846 44.5304C254.018 44.56 253.515 44.6784 253.337 44.8855C253.16 45.063 253.071 45.2849 253.071 45.5512V57.1788C253.071 57.8001 253.278 58.2439 253.692 58.5102C254.136 58.7469 254.654 58.9392 255.246 59.0871C255.482 59.1759 255.689 59.2942 255.867 59.4422C256.074 59.5605 256.178 59.738 256.178 59.9747C256.178 60.1522 256.074 60.2854 255.867 60.3741C255.689 60.4629 255.527 60.5073 255.379 60.5073C254.787 60.5073 254.225 60.4777 253.692 60.4185C253.16 60.3889 252.642 60.3593 252.139 60.3298C251.666 60.3002 251.163 60.2854 250.63 60.2854C250.127 60.2854 249.654 60.3002 249.21 60.3298C248.766 60.3593 248.308 60.3889 247.834 60.4185C247.361 60.4777 246.828 60.5073 246.236 60.5073ZM279.849 60.9955C278.222 60.9955 276.787 60.5813 275.544 59.7528C274.302 58.9244 273.325 57.7853 272.615 56.3355C271.905 54.8562 271.55 53.1846 271.55 51.3206C271.55 49.5158 271.964 47.8737 272.793 46.3944C273.651 44.8855 274.79 43.6872 276.21 42.7996C277.63 41.912 279.184 41.4682 280.87 41.4682C282.113 41.4682 283.222 41.7345 284.199 42.267C285.175 42.77 285.944 43.4801 286.506 44.3973C287.098 45.2849 287.394 46.2908 287.394 47.4151C287.394 48.4803 286.935 49.0128 286.018 49.0128H277.009C276.595 49.0128 276.284 49.1312 276.077 49.3679C275.899 49.575 275.811 49.9744 275.811 50.5661C275.811 51.8088 276.077 52.9331 276.61 53.939C277.172 54.945 277.911 55.7438 278.829 56.3355C279.746 56.9273 280.796 57.2232 281.98 57.2232C282.838 57.2232 283.622 57.0604 284.332 56.735C285.071 56.3799 285.767 55.9065 286.418 55.3148C286.536 55.226 286.639 55.1521 286.728 55.0929C286.817 55.0041 286.906 54.9598 286.994 54.9598C287.29 54.9598 287.438 55.1373 287.438 55.4923C287.438 55.9065 287.261 56.4095 286.906 57.0013C286.551 57.6817 286.033 58.3327 285.352 58.954C284.701 59.5753 283.903 60.0635 282.956 60.4185C282.009 60.8032 280.974 60.9955 279.849 60.9955ZM277.009 47.282H280.16C280.929 47.282 281.506 47.2672 281.891 47.2376C282.275 47.208 282.645 47.1489 283 47.0601C283.148 47.0305 283.252 46.9122 283.311 46.7051C283.37 46.4684 283.4 46.2021 283.4 45.9062C283.4 45.1074 283.089 44.4417 282.468 43.9091C281.876 43.347 281.136 43.0659 280.249 43.0659C279.627 43.0659 279.021 43.2582 278.429 43.6428C277.837 43.9979 277.349 44.4565 276.965 45.0186C276.58 45.5808 276.402 46.1577 276.432 46.7494C276.432 47.1045 276.624 47.282 277.009 47.282ZM305.159 61.2174C305.07 61.2174 304.937 61.1286 304.76 60.9511C304.612 60.8032 304.538 60.6848 304.538 60.596C304.597 60.1818 304.641 59.7528 304.671 59.309C304.73 58.8356 304.775 58.4362 304.804 58.1108V57.8445C304.242 58.6729 303.443 59.4126 302.408 60.0635C301.402 60.6848 300.248 60.9955 298.946 60.9955C297.289 60.9955 295.825 60.5813 294.552 59.7528C293.28 58.8948 292.274 57.7705 291.534 56.3799C290.824 54.9598 290.469 53.436 290.469 51.8088C290.469 49.8856 290.898 48.1548 291.756 46.6163C292.644 45.0482 293.872 43.8203 295.44 42.9327C297.008 42.0155 298.828 41.557 300.899 41.557C301.402 41.557 301.905 41.6013 302.408 41.6901C302.94 41.7493 303.399 41.838 303.783 41.9564C304.138 42.0451 304.331 42.0895 304.36 42.0895C304.508 42.0895 304.582 41.838 304.582 41.3351V35.7432C304.582 34.6189 304.434 33.8348 304.138 33.391C303.843 32.9472 303.369 32.6661 302.718 32.5478C302.393 32.459 302.23 32.2371 302.23 31.8821C302.23 31.5566 302.378 31.3495 302.674 31.2608C303.828 30.9945 304.908 30.6986 305.914 30.3732C306.949 30.0181 307.792 29.6927 308.443 29.3968C308.739 29.2784 308.946 29.2045 309.065 29.1749C309.213 29.1157 309.301 29.0861 309.331 29.0861C309.627 29.0861 309.775 29.2341 309.775 29.5299C309.775 29.5299 309.76 29.7074 309.73 30.0625C309.701 30.4175 309.656 30.9057 309.597 31.527C309.568 32.1188 309.538 32.7993 309.508 33.5685L309.375 55.1817C309.375 56.1876 309.449 56.9125 309.597 57.3563C309.745 57.8001 309.997 58.022 310.352 58.022C310.5 58.022 310.692 58.022 310.929 58.022C311.165 57.9924 311.579 57.948 312.171 57.8889C312.615 57.8593 312.837 58.0072 312.837 58.3327C312.837 58.5693 312.748 58.806 312.571 59.0427C312.423 59.2498 312.275 59.3534 312.127 59.3534C311.121 59.4717 310.1 59.6641 309.065 59.9303C308.029 60.1966 306.979 60.5369 305.914 60.9511C305.706 61.0398 305.544 61.099 305.425 61.1286C305.337 61.1878 305.248 61.2174 305.159 61.2174ZM300.987 58.1995C301.55 58.1995 302.171 58.0664 302.851 57.8001C303.532 57.5042 304.109 57.1048 304.582 56.6018V47.3708C304.582 46.7494 304.375 46.1429 303.961 45.5512C303.547 44.9298 302.999 44.4269 302.319 44.0422C301.638 43.628 300.913 43.4209 300.144 43.4209C299.434 43.4209 298.739 43.6872 298.058 44.2198C297.378 44.7227 296.801 45.5068 296.327 46.5719C295.884 47.637 295.662 48.998 295.662 50.6549C295.662 52.0159 295.825 53.1846 296.15 54.1609C296.505 55.1077 296.949 55.877 297.481 56.4687C298.014 57.0604 298.591 57.5042 299.212 57.8001C299.834 58.0664 300.425 58.1995 300.987 58.1995Z" fill="white"/>
<path d="M190.347 104.281C189.962 104.281 189.652 104.222 189.415 104.103C189.208 103.985 189.104 103.822 189.104 103.615C189.104 103.379 189.223 103.201 189.459 103.083C189.726 102.935 190.051 102.816 190.436 102.728C191.56 102.521 192.374 102.121 192.877 101.529C193.379 100.938 193.631 100.154 193.631 99.1772V92.8752C193.631 92.0172 193.483 91.248 193.187 90.5675C192.891 89.8574 192.61 89.2656 192.344 88.7922L186.796 80.0494C186.56 79.6647 186.249 79.2357 185.864 78.7623C185.509 78.2594 185.11 77.8008 184.666 77.3865C184.222 76.9723 183.719 76.6913 183.157 76.5433C182.802 76.425 182.506 76.3066 182.27 76.1883C182.063 76.0403 181.959 75.848 181.959 75.6113C181.959 75.4042 182.063 75.2563 182.27 75.1675C182.477 75.0492 182.728 74.99 183.024 74.99C184.089 74.99 185.14 75.0344 186.175 75.1232C187.24 75.1823 188.365 75.2119 189.548 75.2119C190.406 75.2119 191.22 75.1823 191.989 75.1232C192.788 75.0344 193.601 74.99 194.43 74.99C194.726 74.99 195.007 75.0492 195.273 75.1675C195.539 75.2563 195.672 75.4042 195.672 75.6113C195.672 75.848 195.539 76.0403 195.273 76.1883C195.007 76.3362 194.696 76.4546 194.341 76.5433C193.661 76.6913 193.143 76.8688 192.788 77.0759C192.462 77.283 192.3 77.5937 192.3 78.0079C192.3 78.4517 192.477 78.9694 192.832 79.5612L197.226 87.3277C197.61 88.0674 197.936 88.4372 198.202 88.4372C198.35 88.4372 198.498 88.3484 198.646 88.1709C198.794 87.9934 198.986 87.7123 199.223 87.3277C199.933 86.1738 200.584 85.0347 201.176 83.9104C201.767 82.7861 202.403 81.5583 203.084 80.2269C203.261 79.8718 203.395 79.5316 203.483 79.2061C203.602 78.8511 203.661 78.5404 203.661 78.2741C203.661 77.6824 203.424 77.2682 202.951 77.0315C202.477 76.7652 201.989 76.6025 201.486 76.5433C201.19 76.5137 200.88 76.4102 200.554 76.2327C200.229 76.0551 200.066 75.848 200.066 75.6113C200.066 75.4042 200.199 75.2563 200.466 75.1675C200.732 75.0788 201.028 75.0344 201.353 75.0344C202.152 75.0344 202.847 75.064 203.439 75.1232C204.06 75.1823 204.741 75.2119 205.48 75.2119C206.309 75.2119 207.093 75.1675 207.833 75.0788C208.602 74.99 209.342 74.9456 210.052 74.9456C210.407 74.9456 210.703 74.99 210.939 75.0788C211.206 75.1675 211.339 75.3303 211.339 75.567C211.339 75.8332 211.161 76.0403 210.806 76.1883C210.451 76.3066 210.066 76.425 209.652 76.5433C208.824 76.78 208.114 77.1794 207.522 77.7416C206.93 78.3037 206.353 79.0286 205.791 79.9162C205.288 80.7446 204.815 81.5139 204.371 82.224C203.927 82.9045 203.498 83.5702 203.084 84.2211C202.699 84.8424 202.3 85.4933 201.886 86.1738C201.471 86.8247 201.028 87.5496 200.554 88.3484C200.258 88.8514 200.022 89.31 199.844 89.7242C199.696 90.1384 199.578 90.5675 199.489 91.0113C199.4 91.4551 199.356 91.9728 199.356 92.5646V99.1328C199.356 100.228 199.607 101.041 200.11 101.574C200.613 102.077 201.427 102.461 202.551 102.728C202.966 102.816 203.291 102.92 203.528 103.038C203.794 103.157 203.927 103.349 203.927 103.615C203.927 103.793 203.809 103.941 203.572 104.059C203.365 104.177 203.084 104.237 202.729 104.237C202.019 104.237 201.309 104.207 200.599 104.148C199.889 104.089 199.193 104.044 198.513 104.015C197.862 103.955 197.211 103.926 196.56 103.926C195.909 103.926 195.243 103.955 194.563 104.015C193.882 104.044 193.187 104.089 192.477 104.148C191.767 104.237 191.057 104.281 190.347 104.281ZM212.231 104.636C211.521 104.636 210.841 104.444 210.19 104.059C209.568 103.674 209.065 103.171 208.681 102.55C208.296 101.929 208.104 101.293 208.104 100.642C208.104 99.6358 208.4 98.8222 208.991 98.2008C209.583 97.5499 210.471 96.973 211.654 96.47L215.782 94.6948C216.373 94.4581 216.728 94.2362 216.847 94.0291C216.995 93.822 217.069 93.4374 217.069 92.8752L217.157 90.2568C217.187 89.4284 217.009 88.7627 216.625 88.2597C216.27 87.7567 215.722 87.5052 214.983 87.5052C214.598 87.5052 214.199 87.5792 213.784 87.7271C213.37 87.8751 213.045 88.0674 212.808 88.3041C212.69 88.4224 212.601 88.5851 212.542 88.7922C212.512 88.9698 212.497 89.1473 212.497 89.3248C212.497 89.4727 212.497 89.6651 212.497 89.9018C212.527 90.1089 212.542 90.3012 212.542 90.4787C212.542 90.6562 212.32 90.8781 211.876 91.1444C211.432 91.4107 210.929 91.6474 210.367 91.8545C209.805 92.0616 209.332 92.1651 208.947 92.1651C208.74 92.1651 208.577 92.0912 208.459 91.9432C208.34 91.7953 208.281 91.6178 208.281 91.4107C208.281 90.9373 208.429 90.4639 208.725 89.9905C209.051 89.4875 209.554 88.955 210.234 88.3928C210.974 87.7715 211.787 87.2241 212.675 86.7508C213.563 86.2478 214.421 85.8484 215.249 85.5525C216.107 85.2566 216.847 85.1087 217.468 85.1087C218.888 85.1087 220.027 85.5821 220.885 86.5289C221.743 87.4461 222.157 88.6591 222.128 90.168L221.906 99.6654C221.876 100.316 221.995 100.864 222.261 101.307C222.557 101.751 222.912 101.973 223.326 101.973C223.947 101.973 224.45 101.796 224.835 101.441C224.953 101.322 225.057 101.263 225.146 101.263C225.294 101.263 225.412 101.322 225.501 101.441C225.619 101.529 225.678 101.648 225.678 101.796C225.678 102.121 225.442 102.521 224.968 102.994C224.436 103.526 223.859 103.926 223.237 104.192C222.646 104.488 222.054 104.636 221.462 104.636C219.894 104.636 218.622 103.822 217.645 102.195H217.512C216.536 103.053 215.634 103.674 214.805 104.059C214.006 104.444 213.148 104.636 212.231 104.636ZM214.672 101.973C215.086 101.973 215.441 101.914 215.737 101.796C216.033 101.648 216.284 101.455 216.492 101.219C216.61 101.071 216.699 100.893 216.758 100.686C216.847 100.479 216.906 100.183 216.935 99.7985L217.024 96.9582C217.054 96.6623 217.024 96.47 216.935 96.3813C216.847 96.2629 216.743 96.2037 216.625 96.2037C216.566 96.2037 216.477 96.2185 216.358 96.2481C216.24 96.2481 216.107 96.2925 215.959 96.3813C214.864 96.8251 214.08 97.2984 213.607 97.8014C213.134 98.3044 212.897 98.9553 212.897 99.7542C212.897 100.553 213.089 101.13 213.474 101.485C213.858 101.81 214.258 101.973 214.672 101.973ZM228.066 115.997C227.889 115.997 227.696 115.953 227.489 115.864C227.282 115.775 227.179 115.627 227.179 115.42C227.179 115.184 227.282 115.006 227.489 114.888C227.696 114.769 227.933 114.666 228.199 114.577C228.761 114.4 229.19 114.192 229.486 113.956C229.812 113.749 229.975 113.394 229.975 112.891V91.1888C229.975 90.8929 229.901 90.5527 229.753 90.168C229.605 89.7538 229.383 89.384 229.087 89.0585C228.821 88.7035 228.466 88.4964 228.022 88.4372C227.874 88.378 227.755 88.3041 227.667 88.2153C227.608 88.097 227.578 87.9194 227.578 87.6827C227.578 87.4756 227.608 87.3277 227.667 87.2389C227.755 87.1206 227.859 87.0466 227.977 87.017C229.043 86.7803 230.108 86.4845 231.173 86.1294C232.238 85.7448 233.17 85.375 233.969 85.0199C234.057 84.9903 234.146 84.946 234.235 84.8868C234.324 84.798 234.413 84.7537 234.501 84.7537C234.649 84.7537 234.738 84.8128 234.768 84.9312C234.827 85.0199 234.856 85.1383 234.856 85.2862C234.856 85.5229 234.812 85.9223 234.723 86.4845C234.664 87.017 234.634 87.4756 234.634 87.8603C234.634 88.1561 234.664 88.3189 234.723 88.3484C235.019 88.0526 235.537 87.668 236.276 87.1946C237.046 86.6916 237.919 86.2478 238.895 85.8632C239.901 85.4785 240.862 85.2862 241.78 85.2862C243.348 85.2862 244.679 85.7152 245.774 86.5732C246.898 87.4017 247.756 88.4816 248.348 89.813C248.94 91.1148 249.235 92.4758 249.235 93.896C249.235 95.257 248.969 96.5884 248.437 97.8902C247.934 99.1624 247.209 100.316 246.262 101.352C245.315 102.387 244.221 103.216 242.978 103.837C241.765 104.458 240.448 104.769 239.028 104.769C238.673 104.769 238.244 104.71 237.741 104.592C237.268 104.503 236.779 104.37 236.276 104.192C235.803 104.044 235.389 103.867 235.034 103.66C235.004 103.66 234.975 103.748 234.945 103.926C234.915 104.074 234.886 104.251 234.856 104.458C234.856 104.666 234.856 104.828 234.856 104.947V112.624C234.856 113.009 234.975 113.32 235.211 113.556C235.448 113.823 235.744 114.03 236.099 114.178C236.454 114.326 236.853 114.459 237.297 114.577C237.593 114.666 237.83 114.769 238.007 114.888C238.185 115.006 238.274 115.184 238.274 115.42C238.274 115.598 238.185 115.731 238.007 115.82C237.83 115.938 237.652 115.997 237.475 115.997C236.587 115.997 235.714 115.953 234.856 115.864C234.028 115.805 233.229 115.775 232.46 115.775C231.957 115.775 231.483 115.79 231.04 115.82C230.596 115.849 230.137 115.879 229.664 115.909C229.19 115.968 228.658 115.997 228.066 115.997ZM239.161 102.905C239.516 102.905 239.96 102.787 240.493 102.55C241.025 102.284 241.543 101.87 242.046 101.307C242.578 100.745 243.007 99.9761 243.333 98.9997C243.688 98.0233 243.865 96.8251 243.865 95.4049C243.865 93.7776 243.688 92.4758 243.333 91.4994C242.978 90.4935 242.534 89.739 242.002 89.2361C241.469 88.7331 240.922 88.4076 240.359 88.2597C239.827 88.0822 239.354 87.9934 238.939 87.9934C238.348 87.9934 237.741 88.1265 237.12 88.3928C236.498 88.6295 235.981 88.9254 235.566 89.2804C235.152 89.6059 234.945 89.887 234.945 90.1237C234.945 90.5379 234.945 91.0852 234.945 91.7657C234.945 92.4166 234.93 93.1267 234.901 93.896C234.901 94.6356 234.886 95.3161 234.856 95.9375C234.856 96.5588 234.856 97.0026 234.856 97.2689C234.856 98.1269 235.049 98.9997 235.433 99.8873C235.818 100.745 236.336 101.47 236.987 102.062C237.637 102.624 238.362 102.905 239.161 102.905ZM252.921 115.997C252.743 115.997 252.551 115.953 252.344 115.864C252.137 115.775 252.033 115.627 252.033 115.42C252.033 115.184 252.137 115.006 252.344 114.888C252.551 114.769 252.788 114.666 253.054 114.577C253.616 114.4 254.045 114.192 254.341 113.956C254.666 113.749 254.829 113.394 254.829 112.891V91.1888C254.829 90.8929 254.755 90.5527 254.607 90.168C254.459 89.7538 254.237 89.384 253.942 89.0585C253.675 88.7035 253.32 88.4964 252.876 88.4372C252.728 88.378 252.61 88.3041 252.521 88.2153C252.462 88.097 252.433 87.9194 252.433 87.6827C252.433 87.4756 252.462 87.3277 252.521 87.2389C252.61 87.1206 252.714 87.0466 252.832 87.017C253.897 86.7803 254.962 86.4845 256.027 86.1294C257.093 85.7448 258.024 85.375 258.823 85.0199C258.912 84.9903 259.001 84.946 259.09 84.8868C259.178 84.798 259.267 84.7537 259.356 84.7537C259.504 84.7537 259.593 84.8128 259.622 84.9312C259.681 85.0199 259.711 85.1383 259.711 85.2862C259.711 85.5229 259.667 85.9223 259.578 86.4845C259.519 87.017 259.489 87.4756 259.489 87.8603C259.489 88.1561 259.519 88.3189 259.578 88.3484C259.874 88.0526 260.391 87.668 261.131 87.1946C261.9 86.6916 262.773 86.2478 263.75 85.8632C264.755 85.4785 265.717 85.2862 266.634 85.2862C268.202 85.2862 269.534 85.7152 270.628 86.5732C271.753 87.4017 272.611 88.4816 273.203 89.813C273.794 91.1148 274.09 92.4758 274.09 93.896C274.09 95.257 273.824 96.5884 273.291 97.8902C272.788 99.1624 272.063 100.316 271.117 101.352C270.17 102.387 269.075 103.216 267.833 103.837C266.619 104.458 265.303 104.769 263.883 104.769C263.528 104.769 263.099 104.71 262.596 104.592C262.122 104.503 261.634 104.37 261.131 104.192C260.658 104.044 260.244 103.867 259.888 103.66C259.859 103.66 259.829 103.748 259.8 103.926C259.77 104.074 259.741 104.251 259.711 104.458C259.711 104.666 259.711 104.828 259.711 104.947V112.624C259.711 113.009 259.829 113.32 260.066 113.556C260.303 113.823 260.599 114.03 260.954 114.178C261.309 114.326 261.708 114.459 262.152 114.577C262.448 114.666 262.684 114.769 262.862 114.888C263.039 115.006 263.128 115.184 263.128 115.42C263.128 115.598 263.039 115.731 262.862 115.82C262.684 115.938 262.507 115.997 262.329 115.997C261.442 115.997 260.569 115.953 259.711 115.864C258.883 115.805 258.084 115.775 257.314 115.775C256.811 115.775 256.338 115.79 255.894 115.82C255.45 115.849 254.992 115.879 254.518 115.909C254.045 115.968 253.513 115.997 252.921 115.997ZM264.016 102.905C264.371 102.905 264.815 102.787 265.347 102.55C265.88 102.284 266.398 101.87 266.901 101.307C267.433 100.745 267.862 99.9761 268.188 98.9997C268.543 98.0233 268.72 96.8251 268.72 95.4049C268.72 93.7776 268.543 92.4758 268.188 91.4994C267.833 90.4935 267.389 89.739 266.856 89.2361C266.324 88.7331 265.776 88.4076 265.214 88.2597C264.682 88.0822 264.208 87.9934 263.794 87.9934C263.202 87.9934 262.596 88.1265 261.974 88.3928C261.353 88.6295 260.835 88.9254 260.421 89.2804C260.007 89.6059 259.8 89.887 259.8 90.1237C259.8 90.5379 259.8 91.0852 259.8 91.7657C259.8 92.4166 259.785 93.1267 259.755 93.896C259.755 94.6356 259.741 95.3161 259.711 95.9375C259.711 96.5588 259.711 97.0026 259.711 97.2689C259.711 98.1269 259.903 98.9997 260.288 99.8873C260.673 100.745 261.19 101.47 261.841 102.062C262.492 102.624 263.217 102.905 264.016 102.905ZM285.542 104.636C283.915 104.636 282.48 104.222 281.237 103.393C279.994 102.565 279.018 101.426 278.308 99.9761C277.598 98.4967 277.243 96.8251 277.243 94.9611C277.243 93.1563 277.657 91.5142 278.485 90.0349C279.344 88.526 280.483 87.3277 281.903 86.4401C283.323 85.5525 284.876 85.1087 286.563 85.1087C287.805 85.1087 288.915 85.375 289.891 85.9075C290.868 86.4105 291.637 87.1206 292.199 88.0378C292.791 88.9254 293.087 89.9313 293.087 91.0556C293.087 92.1208 292.628 92.6533 291.711 92.6533H282.702C282.287 92.6533 281.977 92.7717 281.77 93.0084C281.592 93.2155 281.503 93.6149 281.503 94.2066C281.503 95.4493 281.77 96.5736 282.302 97.5795C282.864 98.5855 283.604 99.3843 284.521 99.9761C285.438 100.568 286.489 100.864 287.672 100.864C288.53 100.864 289.314 100.701 290.024 100.375C290.764 100.02 291.459 99.547 292.11 98.9553C292.229 98.8665 292.332 98.7926 292.421 98.7334C292.51 98.6446 292.598 98.6003 292.687 98.6003C292.983 98.6003 293.131 98.7778 293.131 99.1328C293.131 99.547 292.953 100.05 292.598 100.642C292.243 101.322 291.726 101.973 291.045 102.594C290.394 103.216 289.595 103.704 288.649 104.059C287.702 104.444 286.666 104.636 285.542 104.636ZM282.702 90.9225H285.853C286.622 90.9225 287.199 90.9077 287.583 90.8781C287.968 90.8485 288.338 90.7894 288.693 90.7006C288.841 90.671 288.944 90.5527 289.004 90.3456C289.063 90.1089 289.092 89.8426 289.092 89.5467C289.092 88.7479 288.782 88.0822 288.16 87.5496C287.569 86.9875 286.829 86.7064 285.941 86.7064C285.32 86.7064 284.714 86.8987 284.122 87.2833C283.53 87.6384 283.042 88.097 282.657 88.6591C282.273 89.2213 282.095 89.7982 282.125 90.3899C282.125 90.745 282.317 90.9225 282.702 90.9225ZM297.09 104.148C296.853 104.148 296.646 104.103 296.468 104.015C296.291 103.896 296.202 103.748 296.202 103.571C296.202 103.334 296.291 103.157 296.468 103.038C296.676 102.92 296.927 102.816 297.223 102.728C297.844 102.55 298.273 102.343 298.51 102.106C298.776 101.84 298.909 101.485 298.909 101.041V91.0556C298.909 90.3751 298.806 89.813 298.599 89.3692C298.421 88.8958 298.022 88.5851 297.4 88.4372C297.282 88.378 297.164 88.3041 297.045 88.2153C296.927 88.097 296.868 87.9342 296.868 87.7271C296.868 87.3425 297.031 87.1058 297.356 87.017C298.244 86.7803 299.205 86.4697 300.241 86.0851C301.276 85.6708 302.149 85.2714 302.859 84.8868C303.007 84.798 303.17 84.7093 303.347 84.6205C303.525 84.5318 303.658 84.4874 303.747 84.4874C303.984 84.4874 304.102 84.6353 304.102 84.9312C304.102 85.0495 304.087 85.3158 304.057 85.73C304.057 86.1442 304.043 86.6028 304.013 87.1058C304.013 87.5792 303.998 88.0082 303.969 88.3928C303.969 88.5703 304.013 88.6591 304.102 88.6591C304.575 88.0378 305.108 87.4608 305.7 86.9283C306.291 86.3957 306.913 85.9519 307.564 85.5969C308.244 85.2418 308.925 85.0643 309.605 85.0643C310.463 85.0643 311.099 85.2418 311.513 85.5969C311.957 85.9519 312.179 86.3957 312.179 86.9283C312.179 87.3425 312.061 87.7863 311.824 88.2597C311.617 88.7331 311.336 89.1473 310.981 89.5023C310.655 89.8278 310.285 89.9905 309.871 89.9905C309.635 89.9905 309.383 89.9461 309.117 89.8574C308.851 89.739 308.584 89.6059 308.318 89.458C308.052 89.3396 307.771 89.2213 307.475 89.1029C307.208 88.9846 306.957 88.9254 306.72 88.9254C305.981 88.9254 305.315 89.2065 304.723 89.7686C304.131 90.3012 303.836 91.3663 303.836 92.964V100.775C303.836 101.307 304.028 101.722 304.413 102.018C304.797 102.284 305.389 102.535 306.188 102.772C306.513 102.861 306.75 102.964 306.898 103.083C307.075 103.171 307.164 103.334 307.164 103.571C307.164 103.955 306.898 104.148 306.365 104.148C305.478 104.148 304.634 104.103 303.836 104.015C303.066 103.955 302.297 103.926 301.528 103.926C301.025 103.926 300.537 103.941 300.063 103.97C299.619 104 299.161 104.029 298.687 104.059C298.214 104.118 297.682 104.148 297.09 104.148Z" fill="url(#paint1_linear_450_6707)"/>
<g filter="url(#filter1_dd_450_6707)">
<path d="M65.8586 4.85311C70.4264 -0.0981408 78.2472 -0.0981436 82.815 4.85311L91.9718 14.7787C94.2654 17.2648 97.5346 18.6189 100.914 18.4828L114.408 17.9392C121.139 17.6681 126.669 23.1982 126.398 29.9292L125.854 43.4225C125.718 46.8022 127.072 50.0714 129.558 52.3649L139.484 61.5218C144.435 66.0896 144.435 73.9104 139.484 78.4782L129.558 87.635C127.072 89.9286 125.718 93.1978 125.854 96.5775L126.398 110.071C126.669 116.802 121.139 122.332 114.408 122.061L100.914 121.517C97.5346 121.381 94.2654 122.735 91.9718 125.221L82.815 135.147C78.2472 140.098 70.4264 140.098 65.8586 135.147L56.7017 125.221C54.4082 122.735 51.139 121.381 47.7593 121.517L34.266 122.061C27.535 122.332 22.0049 116.802 22.276 110.071L22.8195 96.5775C22.9557 93.1978 21.6016 89.9286 19.1155 87.635L9.1899 78.4782C4.23865 73.9104 4.23865 66.0896 9.1899 61.5218L19.1155 52.3649C21.6016 50.0714 22.9557 46.8022 22.8195 43.4225L22.276 29.9292C22.0049 23.1982 27.535 17.6681 34.266 17.9392L47.7593 18.4828C51.139 18.6189 54.4082 17.2648 56.7017 14.7787L65.8586 4.85311Z" fill="url(#paint2_linear_450_6707)"/>
<path d="M80.9304 14.2808L87.8889 21.8235C90.6922 24.8621 94.6878 26.5171 98.8186 26.3507L109.073 25.9377C114.308 25.7268 118.609 30.028 118.398 35.2632L117.985 45.5172C117.819 49.648 119.474 53.6436 122.512 56.4468L130.055 63.4054C133.906 66.9582 133.906 73.041 130.055 76.5937L122.512 83.5523C119.474 86.3555 117.819 90.3512 117.985 94.4819L118.398 104.736C118.609 109.971 114.308 114.272 109.073 114.061L98.8186 113.648C94.6878 113.482 90.6922 115.137 87.8889 118.176L80.9304 125.718C77.3776 129.569 71.2948 129.569 67.7421 125.718L60.7835 118.176C57.9803 115.137 53.9846 113.482 49.8538 113.648L39.5999 114.061C34.3647 114.272 30.0635 109.971 30.2744 104.736L30.6874 94.4819C30.8538 90.3512 29.1988 86.3555 26.1602 83.5523L18.6175 76.5937C14.7665 73.041 14.7665 66.9582 18.6175 63.4054L26.1602 56.4468C29.1988 53.6436 30.8538 49.648 30.6874 45.5172L30.2744 35.2632C30.0635 30.028 34.3647 25.7268 39.5999 25.9377L49.8538 26.3507C53.9846 26.5171 57.9803 24.8621 60.7835 21.8235L67.7421 14.2808C71.2948 10.4298 77.3776 10.4298 80.9304 14.2808Z" stroke="url(#paint3_linear_450_6707)" stroke-width="5.12667"/>
<path d="M97.7781 54.2362C95.6619 57.341 93.422 59.7932 91.3057 62.8981C89.313 66.6555 86.6677 70.5366 84.0224 74.4176C79.9134 81.2799 74.4644 91.7761 69.1389 102.925L38.0906 81.7622L50.877 67.1727L65.5014 76.5723C69.8575 71.0153 74.3372 66.1109 77.6351 62.1063C79.875 59.6541 81.5857 57.9781 83.1729 55.6495C84.8837 53.9735 87.1236 51.5213 89.3634 49.0691C93.314 44.9409 97.9173 40.6892 103.05 35.6612L107.548 41.5698C105.309 44.022 100.829 48.9263 97.7781 54.2362Z" fill="url(#paint4_linear_450_6707)"/>
</g>
</g>
<defs>
<filter id="filter0_b_450_6707" x="73.557" y="7.08634" width="290.034" height="125.828" filterUnits="userSpaceOnUse" color-interpolation-filters="sRGB">
<feFlood flood-opacity="0" result="BackgroundImageFix"/>
<feGaussianBlur in="BackgroundImageFix" stdDeviation="2.79472"/>
<feComposite in2="SourceAlpha" operator="in" result="effect1_backgroundBlur_450_6707"/>
<feBlend mode="normal" in="SourceGraphic" in2="effect1_backgroundBlur_450_6707" result="shape"/>
</filter>
<filter id="filter1_dd_450_6707" x="2.36995" y="-3.4463" width="154.141" height="153.402" filterUnits="userSpaceOnUse" color-interpolation-filters="sRGB">
<feFlood flood-opacity="0" result="BackgroundImageFix"/>
<feColorMatrix in="SourceAlpha" type="matrix" values="0 0 0 0 0 0 0 0 0 0 0 0 0 0 0 0 0 0 127 0" result="hardAlpha"/>
<feOffset dx="3.69835" dy="2.21901"/>
<feGaussianBlur stdDeviation="3.40248"/>
<feComposite in2="hardAlpha" operator="out"/>
<feColorMatrix type="matrix" values="0 0 0 0 0 0 0 0 0 0 0 0 0 0 0 0 0 0 0.1 0"/>
<feBlend mode="normal" in2="BackgroundImageFix" result="effect1_dropShadow_450_6707"/>
<feColorMatrix in="SourceAlpha" type="matrix" values="0 0 0 0 0 0 0 0 0 0 0 0 0 0 0 0 0 0 127 0" result="hardAlpha"/>
<feOffset dx="5.91736" dy="3.69835"/>
<feGaussianBlur stdDeviation="3.69835"/>
<feComposite in2="hardAlpha" operator="out"/>
<feColorMatrix type="matrix" values="0 0 0 0 0 0 0 0 0 0 0 0 0 0 0 0 0 0 0.15 0"/>
<feBlend mode="normal" in2="effect1_dropShadow_450_6707" result="effect2_dropShadow_450_6707"/>
<feBlend mode="normal" in="SourceGraphic" in2="effect2_dropShadow_450_6707" result="shape"/>
</filter>
<linearGradient id="paint0_linear_450_6707" x1="79.1465" y1="70.0002" x2="358.002" y2="70.0002" gradientUnits="userSpaceOnUse">
<stop stop-color="#20A38D"/>
<stop offset="0.500378" stop-color="#22A993"/>
<stop offset="1" stop-color="#30F3D2"/>
</linearGradient>
<linearGradient id="paint1_linear_450_6707" x1="140.143" y1="60.0146" x2="338.817" y2="94.7637" gradientUnits="userSpaceOnUse">
<stop stop-color="white"/>
<stop offset="0.594806" stop-color="#03E3DE"/>
<stop offset="1" stop-color="#03F8AD"/>
</linearGradient>
<linearGradient id="paint2_linear_450_6707" x1="34.0248" y1="4.16941" x2="113.539" y2="137.31" gradientUnits="userSpaceOnUse">
<stop stop-color="#D2FFFE"/>
<stop offset="0.438416" stop-color="#BBFFF8"/>
<stop offset="1" stop-color="#04ECCA"/>
</linearGradient>
<linearGradient id="paint3_linear_450_6707" x1="31.4354" y1="8.23756" x2="116.867" y2="122.147" gradientUnits="userSpaceOnUse">
<stop stop-color="#1FD5BA"/>
<stop offset="1" stop-color="#106F61"/>
</linearGradient>
<linearGradient id="paint4_linear_450_6707" x1="66.9409" y1="142.857" x2="103.185" y2="34.8657" gradientUnits="userSpaceOnUse">
<stop stop-color="#106F61"/>
<stop offset="1" stop-color="#1FD5BA"/>
</linearGradient>
<clipPath id="clip0_450_6707">
<rect width="358" height="138.318" fill="white" transform="translate(0 0.840942)"/>
</clipPath>
</defs>
</svg>
