<svg width="36" height="36" viewBox="0 0 36 36" fill="none" xmlns="http://www.w3.org/2000/svg">
<path d="M32.0007 17.9713C31.0477 17.9713 30.2746 18.763 30.2746 19.74C30.2746 19.9959 30.3301 20.2378 30.4257 20.4572L24.2337 23.277L19.0587 14.1867C19.5705 13.8798 19.9186 13.3169 19.9186 12.6651C19.9186 11.6881 19.1459 10.8964 18.1924 10.8964C17.239 10.8964 16.4662 11.6881 16.4662 12.6651C16.4662 13.2976 16.7929 13.8485 17.2801 14.161L11.7198 23.277L5.52773 20.4572C5.62301 20.2374 5.67891 19.9959 5.67891 19.74C5.67891 18.7633 4.90617 17.9713 3.95273 17.9713C2.9993 17.9713 2.22656 18.763 2.22656 19.74C2.22656 20.7166 2.9993 21.5087 3.95273 21.5087C4.09301 21.5087 4.22766 21.4869 4.35809 21.4545L7.40438 34.3316H28.5484L31.5947 21.4545C31.7251 21.4869 31.8598 21.5087 32 21.5087C32.9535 21.5087 33.7262 20.717 33.7262 19.74C33.7266 18.7633 32.9538 17.9713 32.0007 17.9713Z" fill="url(#paint0_linear_203_11593)"/>
<path d="M13.622 31.51L13.986 29.844L16.618 27.002C16.87 26.7313 17.094 26.47 17.29 26.218C17.4953 25.9567 17.6727 25.7047 17.822 25.462C17.9807 25.21 18.0973 24.972 18.172 24.748C18.256 24.5147 18.298 24.2953 18.298 24.09C18.298 23.894 18.2607 23.7447 18.186 23.642C18.1207 23.5393 18.0227 23.488 17.892 23.488C17.7147 23.488 17.528 23.544 17.332 23.656C17.136 23.768 16.94 23.9127 16.744 24.09C16.5573 24.258 16.3707 24.4307 16.184 24.608L15.302 22.956C15.7687 22.4147 16.2587 22.018 16.772 21.766C17.2947 21.5047 17.8547 21.374 18.452 21.374C18.9093 21.374 19.3107 21.4673 19.656 21.654C20.0013 21.8407 20.272 22.102 20.468 22.438C20.6733 22.7647 20.776 23.152 20.776 23.6C20.776 24.104 20.692 24.5847 20.524 25.042C20.356 25.49 20.104 25.9427 19.768 26.4C19.432 26.848 19.0167 27.3193 18.522 27.814L17.01 29.354V29.41H19.824L19.362 31.51H13.622Z" fill="#3C280F"/>
<defs>
<linearGradient id="paint0_linear_203_11593" x1="17.9764" y1="10.8964" x2="17.9764" y2="34.3316" gradientUnits="userSpaceOnUse">
<stop stop-color="#DAD5CF"/>
<stop offset="0.475" stop-color="#FEFEF6"/>
<stop offset="1" stop-color="#D1D1C9"/>
</linearGradient>
</defs>
</svg>
